<?xml version="1.0" encoding="UTF-8" standalone="no"?>
<!-- Generator: Adobe Illustrator 23.0.2, SVG Export Plug-In . SVG Version: 6.00 Build 0)  -->

<svg
   xmlns:dc="http://purl.org/dc/elements/1.1/"
   xmlns:cc="http://creativecommons.org/ns#"
   xmlns:rdf="http://www.w3.org/1999/02/22-rdf-syntax-ns#"
   xmlns:svg="http://www.w3.org/2000/svg"
   xmlns="http://www.w3.org/2000/svg"
   xmlns:sodipodi="http://sodipodi.sourceforge.net/DTD/sodipodi-0.dtd"
   xmlns:inkscape="http://www.inkscape.org/namespaces/inkscape"
   version="1.1"
   x="0px"
   y="0px"
   viewBox="0 0 651 554"
   style="enable-background:new 0 0 651 554;"
   xml:space="preserve"
   id="svg624"
   sodipodi:docname="camping.svg"
   inkscape:version="0.92.4 (5da689c313, 2019-01-14)"><metadata
   id="metadata630"><rdf:RDF><cc:Work
       rdf:about=""><dc:format>image/svg+xml</dc:format><dc:type
         rdf:resource="http://purl.org/dc/dcmitype/StillImage" /><dc:title></dc:title></cc:Work></rdf:RDF></metadata><defs
   id="defs628">
	
	
<clipPath
   clipPathUnits="userSpaceOnUse"
   id="clipPath1760"><rect
     style="fill:#12ff33;fill-opacity:1;stroke:#ee9c64;stroke-opacity:1"
     id="rect1762"
     width="796.75342"
     height="663.9613"
     x="-18.258936"
     y="-81.742912" /></clipPath></defs><sodipodi:namedview
   pagecolor="#ffffff"
   bordercolor="#666666"
   borderopacity="1"
   objecttolerance="10"
   gridtolerance="10"
   guidetolerance="10"
   inkscape:pageopacity="0"
   inkscape:pageshadow="2"
   inkscape:window-width="1280"
   inkscape:window-height="961"
   id="namedview626"
   showgrid="false"
   inkscape:zoom="0.60244477"
   inkscape:cx="328.30151"
   inkscape:cy="306.39661"
   inkscape:window-x="-8"
   inkscape:window-y="-8"
   inkscape:window-maximized="1"
   inkscape:current-layer="svg624" />
<style
   type="text/css"
   id="style2">
	.st0{fill:#2A8034;}
	.st1{fill:#B3CF67;}
	.st2{fill:none;stroke:#835213;stroke-width:12;stroke-miterlimit:10;}
	.st3{fill:#835213;}
	.st4{fill:#E42320;}
	.st5{fill:#80CBE0;}
	.st6{fill:none;stroke:#9B9A99;stroke-width:6;stroke-miterlimit:10;}
	.st7{fill:#C6C6C6;}
	.st8{fill:#3957FF;}
	.st9{fill:#1D1D1B;}
	.st10{fill:none;stroke:#1D1D1B;stroke-miterlimit:10;}
	.st11{fill:#FFFFFF;}
	.st12{fill:#12FF33;stroke:#E5A05C;stroke-width:2;stroke-miterlimit:10;}
	.st13{fill:#63D66E;stroke:#000000;stroke-width:0.25;stroke-miterlimit:10;}
	.st14{fill:#577BFF;stroke:#000000;stroke-width:0.25;stroke-miterlimit:10;}
	.st15{fill:#99721C;}
	.st16{stroke:#63D66E;stroke-width:0.25;stroke-miterlimit:10;}
	.st17{fill:#74CE89;}
	.st18{fill:#595959;}
	.st19{fill:#FFFFFF;stroke:#000000;stroke-miterlimit:10;}
	.st20{fill:#CA0EE5;}
	.st21{fill:#1042E2;}
</style>












<g
   id="Ebene_4">
</g>

<g
   id="Ebene_16">
</g>
<g
   id="g1758"
   clip-path="url(#clipPath1760)"><g
     id="Ebene_8">
	<rect
   id="rect4"
   height="724.5"
   width="999"
   class="st0"
   y="-120.5"
   x="-118.5" />
</g><path
     class="st1"
     d="M 492,602.3 148.33,227.7 138.54,203.43 c 0,0 23.79,-19.76 37.13,-27.76 13.33,-8 58.67,-31.33 74,-38 C 265,131 291,120.33 321,105 351,89.67 428.33,42.33 431.67,41 435,39.67 534.34,25.67 534.34,25.67 h 24 L 657,55 l 62.67,36 138.67,123.33 17.33,28 4.83,7.67 v 354 z"
     id="path7"
     inkscape:connector-curvature="0"
     style="fill:#b3cf67" /><path
     class="st0"
     d="M 880.5,244.45"
     id="path9"
     inkscape:connector-curvature="0"
     style="fill:#2a8034" /><g
     id="Straßen">
	<path
   id="path12"
   d="M531-215c0,0-40.7,50.27-150,150C244,60,175,82,60,161c0,0-59,76.67-106.33,159.33s-143,282-143,282"
   class="st2" />
	<path
   id="path14"
   d="M48.84,175.9L85,200.33c0,0,124,130.67,160.67,165.33s160,180,160,180l54,56.67h25.72L373.67,469.67   L301,389.12L179,262.33L122.39,213l-55.55-56.67L48.84,175.9z"
   class="st3" />
	<path
   id="path16"
   d="M138.54,203.43"
   class="st4" />
</g><g
     id="Graben">
	<path
   id="path19"
   d="M122.39,213c0,0,160.61,162.67,208.61,217.33s154.39,172,154.39,172h15.11c0,0-68.17-74-90.17-100.67   s-34-46.67-48-62c-14-15.33-33.33-32.67-70-71.33s-156.67-168-156.67-168L122.39,213z"
   class="st4" />
	<line
   id="line21"
   y2="205.12"
   x2="164.35"
   y1="227.7"
   x1="122.39"
   class="st2" />
</g><g
     id="Ebene_7">
	<path
   id="path24"
   d="M461,360.33c0-7.33,11.67-14.17,13.33-18c1.67-3.83,40-24.5,45.33-26C525,314.83,546.5,311,563,311   s38.46,10.65,45.33,20s30,35.67,33.33,45.33c3.33,9.67,3.33,17.83,3.33,25c0,7.17-20,40.33-24,49c-4,8.67,0.5,13.33-4,18   c-4.5,4.67-6.67,8-17.33,8c-10.67,0-29.69-3.89-42.33-9.33c-12.64-5.44-18.33-7.17-26.33-11.33c-8-4.17-26.27-16.6-33.33-28.67   c-7.06-12.06-36.67-55.33-36.67-62.67C461,357,461,367.67,461,360.33z"
   class="st0" />
</g><g
     id="Wasser">
	<path
   id="path27"
   d="M497.67,375c0-6,0.15-10.67,6-17.33c5.85-6.67,29.83-13.79,33.33-15.33c3.5-1.54,19.11-3.56,24-4.33   s10.84,1.94,16.67,4.33c5.83,2.39,23.33,6.26,26,10.67S617,370.67,617,375s0,13,0,18s-11.33,22.85-17.5,28.5S579,439.67,573,439.67   s-18.5,3.83-28,3.83s-24.15-15.41-26.67-21.17C515.82,416.58,497.67,381,497.67,375z"
   class="st5" />
</g><g
     id="Weg">
	<line
   id="line30"
   y2="261.91"
   x2="479.67"
   y1="132.67"
   x1="351.67"
   class="st6" />
</g><g
     id="Parkplatz">
	<path
   id="path33"
   d="M153.24,191.67L191.5,236c0,0,206.5-134.5,272.5-146.5s159.5,29,159.5,29c21.5,8,115.12-5.82,137.31,9.09   L719.67,91L657,55l-98.67-29.33h-24L431.67,41l-106.52,61.84l-39.59,19.18L228.04,148l-52.37,27.67L153.24,191.67z"
   class="st7" />
	<g
   id="g43">
		
			<rect
   id="rect35"
   height="35.19"
   width="26.15"
   class="st8"
   transform="matrix(0.8513 -0.5247 0.5247 0.8513 -58.4234 151.0522)"
   y="160.99"
   x="224.17" />
		<g
   id="g41">
			<path
   id="path37"
   d="M225.62,174.76c0.81-0.71,1.91-1.56,3.41-2.48c1.84-1.14,3.46-1.54,4.79-1.3c1.22,0.2,2.33,0.96,3.13,2.24     c0.81,1.31,1.05,2.58,0.79,3.77c-0.34,1.66-1.62,3.18-3.44,4.31c-0.56,0.34-1.09,0.64-1.58,0.8l3.57,5.79l-1.86,1.15     L225.62,174.76z M231.77,180.58c0.47-0.15,1.01-0.42,1.64-0.8c2.25-1.39,2.95-3.33,1.72-5.32c-1.18-1.91-3.09-2-5.15-0.73     c-0.81,0.5-1.4,0.95-1.66,1.23L231.77,180.58z"
   class="st9" />
			<path
   id="path39"
   d="M246.48,181.6l-4.35-7.05l-0.04,0.03l-1.08,1.7l-0.92-0.97l1.43-2.19l1.31-0.81l5.15,8.36L246.48,181.6z"
   class="st9" />
		</g>
	</g>
	<g
   id="g53">
		
			<rect
   id="rect45"
   height="35.19"
   width="26.15"
   class="st8"
   transform="matrix(0.8513 -0.5247 0.5247 0.8513 -23.902 184.66)"
   y="116.9"
   x="300.72" />
		<g
   id="g51">
			<path
   id="path47"
   d="M301.44,131.11c0.81-0.71,1.91-1.56,3.41-2.48c1.84-1.14,3.46-1.54,4.79-1.3c1.22,0.2,2.33,0.96,3.13,2.24     c0.81,1.31,1.05,2.58,0.79,3.77c-0.34,1.66-1.62,3.18-3.44,4.31c-0.56,0.34-1.09,0.64-1.58,0.8l3.57,5.79l-1.86,1.15     L301.44,131.11z M307.6,136.93c0.47-0.15,1.01-0.42,1.64-0.8c2.25-1.39,2.95-3.33,1.72-5.32c-1.18-1.91-3.09-2-5.15-0.73     c-0.81,0.5-1.4,0.95-1.66,1.23L307.6,136.93z"
   class="st9" />
			<path
   id="path49"
   d="M319.79,138.41l0.57-2.1c0.79-2.7,1.09-4.28,0.42-5.37c-0.5-0.81-1.44-1.18-2.55-0.5     c-0.75,0.46-1.16,1.24-1.39,1.77l-1.04-0.69c0.27-0.85,0.99-1.85,2.06-2.51c2.01-1.24,3.63-0.49,4.34,0.67     c0.99,1.61,0.5,3.54-0.25,5.98l-0.29,1.01l0.03,0.04l3.67-2.26l0.73,1.18l-5.79,3.57L319.79,138.41z"
   class="st9" />
		</g>
	</g>
	<g
   id="g63">
		
			<rect
   id="rect55"
   height="35.19"
   width="26.15"
   class="st8"
   transform="matrix(0.8841 -0.4674 0.4674 0.8841 5.5293 197.062)"
   y="69.79"
   x="386.87" />
		<g
   id="g61">
			<path
   id="path57"
   d="M387.97,83.08c0.85-0.65,2.01-1.43,3.56-2.25c1.91-1.01,3.55-1.31,4.87-0.98c1.2,0.28,2.27,1.11,2.97,2.44     c0.72,1.36,0.88,2.64,0.54,3.82c-0.45,1.63-1.82,3.07-3.71,4.07c-0.58,0.31-1.12,0.57-1.63,0.69l3.18,6.01l-1.94,1.02     L387.97,83.08z M393.73,89.29c0.48-0.11,1.04-0.35,1.68-0.69c2.34-1.24,3.16-3.12,2.07-5.19c-1.05-1.98-2.96-2.2-5.09-1.07     c-0.85,0.45-1.46,0.86-1.74,1.12L393.73,89.29z"
   class="st9" />
			<path
   id="path59"
   d="M402.3,84.11c0.34-0.61,1.1-1.47,2.2-2.04c1.91-1.01,3.26-0.41,3.82,0.66c0.47,0.89,0.23,1.99-0.66,2.91     l0.02,0.04c1.32-0.47,2.61-0.07,3.21,1.07c0.73,1.38,0.13,3.26-2.14,4.46c-1.07,0.56-2.2,0.79-2.87,0.72l-0.19-1.32     c0.49,0.06,1.53-0.07,2.38-0.52c1.36-0.72,1.54-1.84,1.15-2.52c-0.59-1.11-2-0.93-3.18-0.31l-0.6,0.32l-0.54-1.02l0.62-0.33     c0.82-0.43,1.8-1.44,1.27-2.5c-0.28-0.53-0.98-0.88-1.98-0.35c-0.8,0.42-1.36,1.15-1.59,1.58L402.3,84.11z"
   class="st9" />
		</g>
	</g>
	<g
   id="g73">
		
			<rect
   id="rect65"
   height="35.19"
   width="26.15"
   class="st8"
   transform="matrix(1 8.596533e-03 -8.596533e-03 1 0.5438 -4.2531)"
   y="43.53"
   x="481.94" />
		<g
   id="g71">
			<path
   id="path67"
   d="M485.89,51.65c1.06-0.17,2.44-0.31,4.21-0.29c2.17,0.02,3.75,0.54,4.75,1.45c0.92,0.81,1.47,2.05,1.46,3.56     c-0.01,1.54-0.48,2.74-1.34,3.62c-1.17,1.22-3.06,1.84-5.2,1.82c-0.65-0.01-1.26-0.04-1.76-0.17l-0.06,6.8l-2.19-0.02     L485.89,51.65z M488.01,59.85c0.48,0.13,1.08,0.19,1.81,0.19c2.64,0.02,4.27-1.25,4.29-3.59c0.02-2.24-1.56-3.34-3.97-3.36     c-0.96-0.01-1.69,0.06-2.07,0.16L488.01,59.85z"
   class="st9" />
			<path
   id="path69"
   d="M502.39,68.56l0.02-2.59l-4.76-0.04l0.01-1.01l4.51-6.23l1.99,0.02l-0.05,6.04l1.41,0.01L505.51,66     l-1.41-0.01l-0.02,2.59L502.39,68.56z M502.45,61.76c0-0.55,0.06-1.08,0.09-1.59h-0.05c-0.31,0.58-0.56,1.03-0.87,1.48l-2.22,3     l0.02,0.05l3,0.03L502.45,61.76z"
   class="st9" />
		</g>
	</g>
	<g
   id="g83">
		
			<rect
   id="rect75"
   height="35.19"
   width="26.15"
   class="st8"
   transform="matrix(0.9612 0.2758 -0.2758 0.9612 44.3567 -163.7914)"
   y="58.22"
   x="591.48" />
		<g
   id="g81">
			<path
   id="path77"
   d="M598.87,64.44c1.07,0.12,2.44,0.36,4.13,0.84c2.08,0.6,3.47,1.52,4.19,2.67c0.67,1.03,0.86,2.37,0.45,3.82     c-0.42,1.48-1.19,2.51-2.26,3.13c-1.45,0.87-3.44,0.95-5.5,0.36c-0.63-0.18-1.2-0.37-1.65-0.63l-1.88,6.53l-2.1-0.6L598.87,64.44     z M598.71,72.91c0.43,0.25,0.99,0.47,1.69,0.67c2.54,0.73,4.44-0.06,5.09-2.31c0.62-2.15-0.61-3.63-2.93-4.3     c-0.92-0.26-1.64-0.39-2.03-0.4L598.71,72.91z"
   class="st9" />
			<path
   id="path79"
   d="M614.09,77.48l-3.75-1.08l-0.9,1.97c0.2,0.03,0.45,0.08,0.76,0.17c0.8,0.23,1.56,0.6,2.07,1.17     c0.63,0.63,0.99,1.65,0.65,2.83c-0.54,1.86-2.46,2.81-4.71,2.16c-1.04-0.3-1.95-0.87-2.35-1.3l0.69-1.11     c0.34,0.36,1.08,0.89,2,1.15c1.09,0.31,2.33-0.09,2.66-1.23c0.33-1.14-0.22-2.16-2.18-2.72c-0.56-0.16-1.04-0.22-1.41-0.3     l1.96-4.44l4.89,1.4L614.09,77.48z"
   class="st9" />
		</g>
	</g>
</g><g
     transform="matrix(1.2369643,0,0,1.15228,-101.09169,-40.523861)"
     id="Tower">
	
		<rect
   style="fill:#1d1d1b"
   id="rect86"
   height="11.67"
   width="24"
   class="st9"
   transform="matrix(0.7071,-0.7071,0.7071,0.7071,-56.0027,373.7295)"
   y="248.63"
   x="411.13" />
	
		<rect
   style="fill:#1d1d1b"
   id="rect88"
   height="11.67"
   width="24"
   class="st9"
   transform="matrix(0.7071,0.7071,-0.7071,0.7071,294.3151,-235.9409)"
   y="231.47"
   x="419.95999" />
	<polyline
   style="fill:none;stroke:#1d1d1b;stroke-miterlimit:10"
   id="polyline90"
   points="429.96,254.47 432.8,261.91 424.13,260.08  "
   class="st10" />
	<line
   style="fill:none;stroke:#1d1d1b;stroke-miterlimit:10"
   id="line92"
   y2="264.98999"
   x2="432.79999"
   y1="261.91"
   x1="432.79999"
   class="st10" />
</g><g
     id="Festzelt">
	
		<rect
   id="rect95"
   height="33.33"
   width="17.8"
   class="st11"
   transform="matrix(0.7071 -0.7071 0.7071 0.7071 -68.3737 428.4437)"
   y="280.09"
   x="474.09" />
	
		<rect
   id="rect97"
   height="7.67"
   width="20"
   class="st11"
   transform="matrix(0.7071 -0.7071 0.7071 0.7071 -69.9178 444.2791)"
   y="302.7"
   x="491.33" />
</g><g
     id="Pool">
	<circle
   id="circle100"
   r="26.67"
   cy="348.67"
   cx="450.67"
   class="st12" />
	
		<rect
   style="fill:#63d66e;stroke:#000000;stroke-width:0.45607218;stroke-miterlimit:10"
   id="rect102"
   height="63.047428"
   width="31.104122"
   class="st13"
   transform="matrix(0.72803641,0.68553846,-0.72803641,0.68553846,0,0)"
   y="-71.768814"
   x="486.7644" />
	<line
   style="fill:#63d66e;stroke:#000000;stroke-width:0.45566452;stroke-miterlimit:10"
   id="line104"
   y2="327.44635"
   x2="406.33261"
   y1="306.11633"
   x1="383.68024"
   class="st13" />
	<ellipse
   ry="1.3972421"
   rx="1.4838601"
   style="fill:#63d66e;stroke:#000000;stroke-width:0.45566452;stroke-miterlimit:10"
   id="circle106"
   cy="316.78131"
   cx="395.00647"
   class="st13" />
	
		<rect
   style="fill:#577bff;stroke:#000000;stroke-width:0.36401755;stroke-miterlimit:10"
   id="rect108"
   height="29.936802"
   width="21.287746"
   class="st14"
   transform="matrix(0.71671618,0.69736498,-0.71671618,0.69736498,0,0)"
   y="-20.628132"
   x="428.94202" />
	
		<rect
   style="fill:#99721c;stroke-width:1.45607018"
   id="rect110"
   height="8.1248713"
   width="2.431637"
   class="st15"
   transform="matrix(0.71671618,-0.69736498,0.71671618,0.69736498,0,0)"
   y="434.84372"
   x="26.154539" />
	
		<rect
   style="fill:#99721c;stroke-width:1.45607018"
   id="rect112"
   height="8.1248713"
   width="2.431637"
   class="st15"
   transform="matrix(0.71671618,-0.69736498,0.71671618,0.69736498,0,0)"
   y="434.85562"
   x="-17.171875" />
	
		<rect
   style="fill:#ffffff;stroke-width:1.55242467"
   id="rect114"
   height="14.561744"
   width="26.670658"
   class="st11"
   transform="matrix(0.71212103,-0.70205672,0.71212103,0.70205672,0,0)"
   y="466.83148"
   x="41.742409" />
	<rect
   transform="rotate(28.329177)"
   style="stroke:#63d66e;stroke-width:0.40071023;stroke-miterlimit:10"
   id="rect116"
   height="19.94639"
   width="53.757984"
   class="st16"
   y="154.17766"
   x="476.66214" />
	<g
   transform="matrix(1.5022127,0.80984525,-0.71436157,1.3250964,27.969526,-420.31158)"
   id="g128">
		<path
   style="fill:#ffffff"
   inkscape:connector-curvature="0"
   id="path118"
   d="m 385.94,361 c 0.3,-0.06 0.79,-0.11 1.27,-0.11 0.7,0 1.15,0.12 1.48,0.39 0.28,0.21 0.45,0.53 0.45,0.95 0,0.52 -0.34,0.98 -0.91,1.19 v 0.02 c 0.51,0.13 1.11,0.55 1.11,1.35 0,0.46 -0.18,0.82 -0.46,1.08 -0.38,0.34 -0.99,0.5 -1.87,0.5 -0.48,0 -0.85,-0.03 -1.08,-0.06 V 361 Z m 0.7,2.21 h 0.63 c 0.74,0 1.17,-0.38 1.17,-0.91 0,-0.63 -0.48,-0.88 -1.19,-0.88 -0.32,0 -0.5,0.02 -0.62,0.05 v 1.74 z m 0,2.59 c 0.14,0.02 0.34,0.03 0.58,0.03 0.72,0 1.39,-0.26 1.39,-1.05 0,-0.74 -0.63,-1.04 -1.39,-1.04 h -0.58 z"
   class="st11" />
		<path
   style="fill:#ffffff"
   inkscape:connector-curvature="0"
   id="path120"
   d="m 390.98,360.93 v 3.2 c 0,1.21 0.54,1.72 1.26,1.72 0.8,0 1.31,-0.53 1.31,-1.72 v -3.2 h 0.7 v 3.15 c 0,1.66 -0.87,2.34 -2.04,2.34 -1.11,0 -1.94,-0.63 -1.94,-2.31 v -3.18 z m 0.17,-0.78 c 0,-0.22 0.18,-0.4 0.4,-0.4 0.22,0 0.38,0.18 0.38,0.4 0,0.22 -0.16,0.41 -0.39,0.41 -0.23,-0.01 -0.39,-0.19 -0.39,-0.41 z m 1.49,0 c 0,-0.22 0.17,-0.4 0.39,-0.4 0.22,0 0.38,0.18 0.38,0.4 0,0.22 -0.15,0.41 -0.38,0.41 -0.24,-0.01 -0.39,-0.19 -0.39,-0.41 z"
   class="st11" />
		<path
   style="fill:#ffffff"
   inkscape:connector-curvature="0"
   id="path122"
   d="m 396.17,360.93 v 2.26 h 2.61 v -2.26 h 0.7 v 5.4 h -0.7 v -2.53 h -2.61 v 2.53 h -0.7 v -5.4 z"
   class="st11" />
		<path
   style="fill:#ffffff"
   inkscape:connector-curvature="0"
   id="path124"
   d="m 400.69,366.33 v -5.4 h 0.76 l 1.73,2.73 c 0.4,0.63 0.71,1.2 0.97,1.75 l 0.02,-0.01 c -0.06,-0.72 -0.08,-1.38 -0.08,-2.22 v -2.26 h 0.66 v 5.4 h -0.7 l -1.71,-2.74 c -0.38,-0.6 -0.74,-1.22 -1.01,-1.8 l -0.02,0.01 c 0.04,0.68 0.06,1.33 0.06,2.23 v 2.31 z"
   class="st11" />
		<path
   style="fill:#ffffff"
   inkscape:connector-curvature="0"
   id="path126"
   d="m 408.76,363.8 h -2.1 v 1.95 H 409 v 0.58 h -3.04 v -5.4 h 2.92 v 0.58 h -2.22 v 1.71 h 2.1 z"
   class="st11" />
	</g>
</g><g
     id="Zeltplatz">
	
		<rect
   id="rect131"
   height="16.81"
   width="97.76"
   class="st17"
   transform="matrix(0.9947 0.1032 -0.1032 0.9947 28.6822 -54.2365)"
   y="241.77"
   x="489.81" />
	
		<rect
   id="rect133"
   height="16.81"
   width="110.14"
   class="st17"
   transform="matrix(0.9947 0.1032 -0.1032 0.9947 25.986 -53.9421)"
   y="215.85"
   x="479.43" />
	
		<rect
   id="rect135"
   height="16.81"
   width="124.36"
   class="st17"
   transform="matrix(0.9947 0.1032 -0.1032 0.9947 23.1054 -53.6485)"
   y="188.15"
   x="468.03" />
	
		<rect
   id="rect137"
   height="16.81"
   width="135.37"
   class="st17"
   transform="matrix(0.9947 0.1032 -0.1032 0.9947 20.3967 -53.3035)"
   y="162.14"
   x="457.84" />
	<g
   id="g151">
		<polygon
   id="polygon139"
   points="505.62,238.92 495.87,252.78 512.74,254.3   "
   class="st18" />
		<g
   id="g149">
			<path
   id="path141"
   d="M499.73,250.66l2.06-2.5l0-0.01l-1.67-0.15l0.03-0.36l2.22,0.2l-0.02,0.26l-2.05,2.5l0,0.01l1.84,0.17     l-0.03,0.36l-2.4-0.22L499.73,250.66z"
   class="st11" />
			<path
   id="path143"
   d="M502.93,247.92c0.21-0.02,0.48-0.02,0.82,0.01c0.42,0.04,0.72,0.16,0.9,0.36c0.17,0.17,0.25,0.42,0.22,0.71     c-0.03,0.3-0.14,0.52-0.32,0.68c-0.25,0.22-0.62,0.31-1.04,0.27c-0.13-0.01-0.24-0.03-0.34-0.06l-0.12,1.32l-0.42-0.04     L502.93,247.92z M503.21,249.55c0.09,0.03,0.21,0.05,0.35,0.07c0.51,0.05,0.85-0.17,0.89-0.63c0.04-0.43-0.25-0.67-0.72-0.71     c-0.19-0.02-0.33-0.01-0.4,0L503.21,249.55z"
   class="st11" />
			<path
   id="path145"
   d="M506.26,248.71L506.26,248.71l-0.59,0.25l-0.05-0.33l0.73-0.31l0.37,0.03l-0.29,3.17l-0.41-0.04     L506.26,248.71z"
   class="st11" />
			<path
   id="path147"
   d="M509.03,251.75l-0.01-0.3l-0.01,0c-0.15,0.17-0.42,0.32-0.75,0.29c-0.48-0.04-0.69-0.4-0.66-0.74     c0.05-0.57,0.59-0.84,1.5-0.75l0-0.05c0.02-0.2,0-0.55-0.49-0.59c-0.22-0.02-0.45,0.03-0.63,0.12l-0.07-0.29     c0.21-0.11,0.5-0.17,0.79-0.14c0.72,0.06,0.85,0.57,0.81,1.05l-0.08,0.88c-0.02,0.21-0.03,0.41-0.01,0.57L509.03,251.75z      M509.08,250.54c-0.47-0.05-1.01-0.02-1.05,0.44c-0.02,0.28,0.15,0.43,0.37,0.45c0.31,0.03,0.52-0.15,0.61-0.34     c0.02-0.04,0.03-0.09,0.04-0.13L509.08,250.54z"
   class="st11" />
		</g>
	</g>
	<g
   id="g165">
		<polygon
   id="polygon153"
   points="480.98,183.62 471.23,197.48 488.11,199   "
   class="st18" />
		<g
   id="g163">
			<path
   id="path155"
   d="M475.09,195.36l2.06-2.5l0-0.01l-1.67-0.15l0.03-0.36l2.22,0.2l-0.02,0.26l-2.05,2.5l0,0.01l1.84,0.17     l-0.03,0.36l-2.4-0.22L475.09,195.36z"
   class="st11" />
			<path
   id="path157"
   d="M478.29,192.63c0.21-0.02,0.48-0.02,0.82,0.01c0.42,0.04,0.72,0.16,0.9,0.36c0.17,0.17,0.25,0.42,0.23,0.71     c-0.03,0.3-0.14,0.52-0.32,0.68c-0.25,0.22-0.62,0.31-1.04,0.27c-0.13-0.01-0.24-0.03-0.34-0.06l-0.12,1.32l-0.42-0.04     L478.29,192.63z M478.57,194.25c0.09,0.03,0.21,0.05,0.35,0.07c0.51,0.05,0.85-0.17,0.89-0.63c0.04-0.43-0.25-0.67-0.72-0.71     c-0.19-0.02-0.33-0.02-0.4,0L478.57,194.25z"
   class="st11" />
			<path
   id="path159"
   d="M481.62,193.41L481.62,193.41l-0.59,0.25l-0.05-0.33l0.73-0.31l0.37,0.03l-0.29,3.17l-0.41-0.04     L481.62,193.41z"
   class="st11" />
			<path
   id="path161"
   d="M483.13,196.34l0.18-2.03l-0.33-0.03l0.03-0.33l0.33,0.03l0.01-0.11c0.03-0.33,0.13-0.63,0.35-0.8     c0.18-0.14,0.4-0.19,0.6-0.17c0.15,0.01,0.28,0.06,0.36,0.1l-0.09,0.33c-0.06-0.04-0.15-0.07-0.27-0.08     c-0.37-0.03-0.49,0.28-0.52,0.64l-0.01,0.13l0.57,0.05l-0.03,0.33l-0.57-0.05l-0.18,2.03L483.13,196.34z"
   class="st11" />
		</g>
	</g>
	<g
   id="g179">
		<polygon
   id="polygon167"
   points="468.74,156.82 458.98,170.68 475.86,172.2   "
   class="st18" />
		<g
   id="g177">
			<path
   id="path169"
   d="M462.85,168.56l2.06-2.5l0-0.01l-1.67-0.15l0.03-0.36l2.22,0.2l-0.02,0.26l-2.05,2.5l0,0.01l1.84,0.17     l-0.03,0.36l-2.4-0.22L462.85,168.56z"
   class="st11" />
			<path
   id="path171"
   d="M466.04,165.83c0.21-0.02,0.48-0.02,0.82,0.01c0.42,0.04,0.72,0.16,0.9,0.36c0.17,0.17,0.25,0.42,0.23,0.71     c-0.03,0.3-0.14,0.52-0.32,0.68c-0.25,0.22-0.62,0.31-1.04,0.27c-0.13-0.01-0.24-0.03-0.34-0.06l-0.12,1.32l-0.42-0.04     L466.04,165.83z M466.32,167.45c0.09,0.03,0.21,0.05,0.35,0.07c0.51,0.05,0.85-0.17,0.89-0.63c0.04-0.43-0.25-0.67-0.72-0.71     c-0.19-0.02-0.33-0.02-0.4,0L466.32,167.45z"
   class="st11" />
			<path
   id="path173"
   d="M469.38,166.61L469.38,166.61l-0.59,0.25l-0.05-0.33l0.73-0.31l0.37,0.03l-0.29,3.17l-0.41-0.04     L469.38,166.61z"
   class="st11" />
			<path
   id="path175"
   d="M471.22,167.19l0.34,1.37c0.06,0.22,0.11,0.42,0.14,0.62l0.01,0c0.07-0.19,0.16-0.38,0.25-0.59l0.58-1.29     l0.45,0.04l-1.14,2.28l-0.41-0.04l-0.68-2.44L471.22,167.19z"
   class="st11" />
		</g>
	</g>
	<g
   id="g193">
		<polygon
   id="polygon181"
   points="507.42,161.12 497.67,174.98 514.54,176.5   "
   class="st18" />
		<g
   id="g191">
			<path
   id="path183"
   d="M501.53,172.86l2.06-2.5l0-0.01l-1.67-0.15l0.03-0.36l2.22,0.2l-0.02,0.26l-2.05,2.5l0,0.01l1.84,0.17     l-0.03,0.36l-2.4-0.22L501.53,172.86z"
   class="st11" />
			<path
   id="path185"
   d="M504.73,170.13c0.21-0.02,0.48-0.02,0.82,0.01c0.42,0.04,0.72,0.16,0.9,0.36c0.17,0.17,0.25,0.42,0.23,0.71     c-0.03,0.3-0.14,0.52-0.32,0.68c-0.25,0.22-0.62,0.31-1.04,0.27c-0.13-0.01-0.24-0.03-0.34-0.06l-0.12,1.32l-0.42-0.04     L504.73,170.13z M505.01,171.75c0.09,0.03,0.21,0.05,0.35,0.07c0.51,0.05,0.85-0.17,0.89-0.63c0.04-0.43-0.25-0.67-0.72-0.71     c-0.19-0.02-0.33-0.02-0.4,0L505.01,171.75z"
   class="st11" />
			<path
   id="path187"
   d="M507.03,173.11c0.12,0.09,0.39,0.24,0.68,0.26c0.55,0.05,0.75-0.29,0.77-0.55     c0.04-0.44-0.35-0.67-0.76-0.71l-0.24-0.02l0.03-0.32l0.24,0.02c0.31,0.03,0.72-0.1,0.75-0.47c0.02-0.25-0.12-0.49-0.51-0.53     c-0.25-0.02-0.51,0.07-0.65,0.15l-0.08-0.32c0.18-0.11,0.51-0.2,0.85-0.17c0.62,0.06,0.87,0.45,0.84,0.84     c-0.03,0.33-0.25,0.59-0.65,0.69l0,0.01c0.38,0.11,0.67,0.43,0.63,0.88c-0.05,0.51-0.48,0.92-1.24,0.85     c-0.36-0.03-0.66-0.17-0.8-0.29L507.03,173.11z"
   class="st11" />
			<path
   id="path189"
   d="M509.28,173.56l1.19-1.29c0.11-0.12,0.22-0.22,0.34-0.34l0-0.01l-1.28-0.11l0.03-0.35l1.8,0.16l-0.03,0.27     l-1.18,1.28c-0.11,0.12-0.22,0.23-0.34,0.34l0,0.01l1.38,0.13l-0.03,0.34l-1.92-0.17L509.28,173.56z"
   class="st11" />
		</g>
	</g>
	<g
   id="g207">
		<polygon
   id="polygon195"
   points="542.63,164.49 532.88,178.35 549.76,179.87   "
   class="st18" />
		<g
   id="g205">
			<path
   id="path197"
   d="M536.74,176.23l2.06-2.5l0-0.01l-1.67-0.15l0.03-0.36l2.22,0.2l-0.02,0.26l-2.05,2.5l0,0.01l1.84,0.17     l-0.03,0.36l-2.4-0.22L536.74,176.23z"
   class="st11" />
			<path
   id="path199"
   d="M539.94,173.49c0.21-0.02,0.48-0.02,0.82,0.01c0.42,0.04,0.72,0.16,0.9,0.36c0.17,0.17,0.25,0.42,0.23,0.71     c-0.03,0.3-0.14,0.52-0.32,0.68c-0.25,0.22-0.62,0.31-1.04,0.27c-0.13-0.01-0.24-0.03-0.34-0.06l-0.12,1.32l-0.42-0.04     L539.94,173.49z M540.22,175.11c0.09,0.03,0.21,0.05,0.35,0.07c0.51,0.05,0.85-0.17,0.89-0.63c0.04-0.43-0.25-0.67-0.72-0.71     c-0.19-0.02-0.33-0.02-0.4,0L540.22,175.11z"
   class="st11" />
			<path
   id="path201"
   d="M544.44,173.97l-0.03,0.28l-1.64,2.76l-0.44-0.04l1.63-2.68v-0.01l-1.55-0.14l0.03-0.36L544.44,173.97z"
   class="st11" />
			<path
   id="path203"
   d="M546.04,177.32l-0.01-0.3l-0.01,0c-0.15,0.17-0.42,0.32-0.75,0.29c-0.48-0.04-0.69-0.4-0.66-0.74     c0.05-0.57,0.59-0.84,1.5-0.75l0-0.05c0.02-0.2,0-0.55-0.49-0.6c-0.22-0.02-0.45,0.03-0.63,0.12l-0.07-0.29     c0.21-0.11,0.5-0.17,0.8-0.14c0.72,0.06,0.85,0.57,0.81,1.05l-0.08,0.88c-0.02,0.21-0.03,0.41-0.01,0.57L546.04,177.32z      M546.09,176.11c-0.47-0.05-1.01-0.02-1.05,0.44c-0.03,0.28,0.15,0.43,0.37,0.45c0.31,0.03,0.52-0.15,0.61-0.34     c0.02-0.04,0.03-0.09,0.04-0.13L546.09,176.11z"
   class="st11" />
		</g>
	</g>
	<g
   id="g221">
		<polygon
   id="polygon209"
   points="575.77,167.92 566.01,181.78 582.89,183.3   "
   class="st18" />
		<g
   id="g219">
			<path
   id="path211"
   d="M569.87,179.66l2.06-2.5l0-0.01l-1.67-0.15l0.03-0.36l2.22,0.2l-0.02,0.26l-2.05,2.5l0,0.01l1.84,0.17     l-0.03,0.36l-2.4-0.22L569.87,179.66z"
   class="st11" />
			<path
   id="path213"
   d="M573.07,176.93c0.21-0.02,0.48-0.02,0.82,0.01c0.42,0.04,0.72,0.16,0.9,0.36c0.17,0.17,0.25,0.42,0.23,0.71     c-0.03,0.3-0.14,0.52-0.32,0.68c-0.25,0.22-0.62,0.31-1.04,0.27c-0.13-0.01-0.24-0.03-0.34-0.06l-0.12,1.32l-0.42-0.04     L573.07,176.93z M573.35,178.55c0.09,0.03,0.21,0.05,0.35,0.07c0.51,0.05,0.85-0.17,0.89-0.63c0.04-0.43-0.25-0.67-0.72-0.71     c-0.19-0.02-0.33-0.02-0.4,0L573.35,178.55z"
   class="st11" />
			<path
   id="path215"
   d="M577.37,177.76l-1.21-0.11l-0.2,0.8c0.07,0,0.14-0.01,0.26,0c0.24,0.02,0.48,0.1,0.67,0.23     c0.24,0.16,0.42,0.46,0.38,0.85c-0.06,0.62-0.59,1.04-1.28,0.98c-0.35-0.03-0.63-0.15-0.77-0.27l0.14-0.32     c0.13,0.09,0.38,0.21,0.66,0.24c0.41,0.04,0.78-0.2,0.81-0.62c0.03-0.41-0.21-0.73-0.85-0.79c-0.18-0.02-0.32-0.01-0.44,0     l0.34-1.5l1.52,0.14L577.37,177.76z"
   class="st11" />
			<path
   id="path217"
   d="M578.02,178.91c0.02-0.24,0.04-0.44,0.04-0.64l0.38,0.03l-0.01,0.39l0.01,0c0.14-0.21,0.43-0.41,0.82-0.37     c0.33,0.03,0.82,0.27,0.74,1.08l-0.13,1.41l-0.43-0.04l0.12-1.36c0.04-0.38-0.08-0.71-0.48-0.75c-0.28-0.03-0.52,0.15-0.61,0.39     c-0.02,0.05-0.04,0.12-0.05,0.2l-0.13,1.42l-0.43-0.04L578.02,178.91z"
   class="st11" />
		</g>
	</g>
	<g
   id="g235">
		<polygon
   id="polygon223"
   points="528.88,188.87 519.13,202.72 536,204.24   "
   class="st18" />
		<g
   id="g233">
			<path
   id="path225"
   d="M522.99,200.61l2.06-2.5l0-0.01l-1.67-0.15l0.03-0.36l2.22,0.2l-0.02,0.26l-2.05,2.5l0,0.01l1.84,0.17     l-0.03,0.36l-2.4-0.22L522.99,200.61z"
   class="st11" />
			<path
   id="path227"
   d="M526.19,197.87c0.21-0.02,0.48-0.02,0.82,0.01c0.42,0.04,0.72,0.16,0.9,0.36c0.17,0.17,0.25,0.42,0.23,0.71     c-0.03,0.3-0.14,0.52-0.32,0.68c-0.25,0.22-0.62,0.31-1.04,0.27c-0.13-0.01-0.24-0.03-0.34-0.06l-0.12,1.32l-0.42-0.04     L526.19,197.87z M526.47,199.49c0.09,0.03,0.21,0.05,0.35,0.07c0.51,0.05,0.85-0.17,0.89-0.63c0.04-0.43-0.25-0.67-0.72-0.71     c-0.19-0.02-0.33-0.02-0.4,0L526.47,199.49z"
   class="st11" />
			<path
   id="path229"
   d="M529.52,198.65L529.52,198.65l-0.59,0.25l-0.05-0.33l0.73-0.31l0.37,0.03l-0.29,3.17l-0.41-0.04     L529.52,198.65z"
   class="st11" />
			<path
   id="path231"
   d="M533.33,198.3l-0.26,2.85c-0.02,0.21-0.04,0.45-0.04,0.61l-0.39-0.04l0.02-0.41l-0.01,0     c-0.16,0.25-0.46,0.43-0.85,0.39c-0.57-0.05-0.97-0.57-0.9-1.29c0.07-0.79,0.6-1.22,1.17-1.17c0.36,0.03,0.59,0.22,0.68,0.42     l0.01,0l0.13-1.41L533.33,198.3z M532.72,200.32c0-0.05,0.01-0.13,0-0.18c-0.04-0.28-0.25-0.52-0.57-0.55     c-0.44-0.04-0.74,0.33-0.79,0.85c-0.04,0.48,0.16,0.89,0.62,0.94c0.29,0.03,0.57-0.14,0.67-0.46c0.02-0.06,0.03-0.12,0.04-0.18     L532.72,200.32z"
   class="st11" />
		</g>
	</g>
	<g
   id="g249">
		<polygon
   id="polygon237"
   points="572.87,193.16 563.11,207.02 579.99,208.54   "
   class="st18" />
		<g
   id="g247">
			<path
   id="path239"
   d="M566.98,204.9l2.06-2.5l0-0.01l-1.67-0.15l0.03-0.36l2.22,0.2l-0.02,0.26l-2.05,2.5l0,0.01l1.84,0.17     l-0.03,0.36l-2.4-0.22L566.98,204.9z"
   class="st11" />
			<path
   id="path241"
   d="M570.17,202.17c0.21-0.02,0.48-0.02,0.82,0.01c0.42,0.04,0.72,0.16,0.9,0.36c0.17,0.17,0.25,0.42,0.23,0.71     c-0.03,0.3-0.14,0.52-0.32,0.68c-0.25,0.22-0.62,0.31-1.04,0.27c-0.13-0.01-0.24-0.03-0.34-0.06l-0.12,1.32l-0.42-0.04     L570.17,202.17z M570.46,203.79c0.09,0.03,0.21,0.05,0.35,0.07c0.51,0.05,0.85-0.17,0.89-0.63c0.04-0.43-0.25-0.67-0.72-0.71     c-0.19-0.02-0.33-0.02-0.4,0L570.46,203.79z"
   class="st11" />
			<path
   id="path243"
   d="M572.47,205.15c0.12,0.09,0.39,0.24,0.68,0.26c0.55,0.05,0.75-0.29,0.77-0.55     c0.04-0.44-0.35-0.67-0.76-0.71l-0.24-0.02l0.03-0.32l0.24,0.02c0.31,0.03,0.72-0.1,0.75-0.47c0.02-0.25-0.12-0.49-0.51-0.53     c-0.25-0.02-0.51,0.07-0.65,0.15l-0.08-0.32c0.18-0.11,0.51-0.2,0.85-0.17c0.62,0.06,0.87,0.45,0.84,0.84     c-0.03,0.33-0.25,0.59-0.65,0.69l0,0.01c0.38,0.11,0.67,0.43,0.63,0.88c-0.05,0.51-0.48,0.92-1.24,0.85     c-0.36-0.03-0.66-0.17-0.8-0.29L572.47,205.15z"
   class="st11" />
			<path
   id="path245"
   d="M576.61,205.65L576.61,205.65c-0.16,0.22-0.44,0.38-0.82,0.35c-0.55-0.05-0.96-0.57-0.89-1.28     c0.08-0.88,0.69-1.22,1.18-1.18c0.37,0.03,0.59,0.24,0.69,0.47l0.01,0l0.05-0.35l0.41,0.04c-0.03,0.2-0.05,0.4-0.07,0.65     l-0.24,2.68l-0.43-0.04L576.61,205.65z M576.71,204.61c0.01-0.06,0.01-0.13,0-0.18c-0.04-0.27-0.25-0.51-0.57-0.54     c-0.44-0.04-0.75,0.31-0.79,0.84c-0.04,0.47,0.15,0.9,0.62,0.94c0.28,0.02,0.53-0.12,0.66-0.41c0.02-0.06,0.05-0.14,0.05-0.2     L576.71,204.61z"
   class="st11" />
		</g>
	</g>
	<g
   id="g263">
		<polygon
   id="polygon251"
   points="494.14,212.21 484.39,226.07 501.27,227.59   "
   class="st18" />
		<g
   id="g261">
			<path
   id="path253"
   d="M488.25,223.95l2.06-2.5l0-0.01l-1.67-0.15l0.03-0.36l2.22,0.2l-0.02,0.26l-2.05,2.5l0,0.01l1.84,0.17     l-0.03,0.36l-2.4-0.22L488.25,223.95z"
   class="st11" />
			<path
   id="path255"
   d="M491.45,221.21c0.21-0.02,0.48-0.02,0.82,0.01c0.42,0.04,0.72,0.16,0.9,0.36c0.17,0.17,0.25,0.42,0.23,0.71     c-0.03,0.3-0.14,0.52-0.32,0.68c-0.25,0.22-0.62,0.31-1.04,0.27c-0.13-0.01-0.24-0.03-0.34-0.06l-0.12,1.32l-0.42-0.04     L491.45,221.21z M491.73,222.83c0.09,0.03,0.21,0.05,0.35,0.07c0.51,0.05,0.85-0.17,0.89-0.63c0.04-0.43-0.25-0.67-0.72-0.71     c-0.19-0.02-0.33-0.01-0.4,0L491.73,222.83z"
   class="st11" />
			<path
   id="path257"
   d="M495.75,222.04l-1.21-0.11l-0.2,0.8c0.08,0,0.14-0.01,0.26,0c0.24,0.02,0.48,0.1,0.67,0.23     c0.24,0.16,0.42,0.46,0.38,0.86c-0.06,0.62-0.59,1.04-1.28,0.98c-0.35-0.03-0.63-0.15-0.77-0.27l0.14-0.32     c0.12,0.09,0.37,0.21,0.66,0.24c0.41,0.04,0.78-0.2,0.81-0.62c0.03-0.41-0.22-0.73-0.85-0.78c-0.18-0.02-0.32-0.01-0.44-0.01     l0.34-1.5l1.52,0.14L495.75,222.04z"
   class="st11" />
			<path
   id="path259"
   d="M496.66,222.58l0.29,0.54c0.08,0.14,0.14,0.27,0.2,0.41l0.01,0c0.09-0.13,0.18-0.25,0.27-0.37l0.38-0.47     l0.46,0.04l-0.91,1.07l0.72,1.29l-0.49-0.04l-0.3-0.56c-0.08-0.14-0.15-0.28-0.22-0.43l-0.01,0c-0.09,0.13-0.19,0.25-0.29,0.39     l-0.39,0.5l-0.47-0.04l0.95-1.13l-0.7-1.23L496.66,222.58z"
   class="st11" />
		</g>
	</g>
	<g
   id="g277">
		<polygon
   id="polygon265"
   points="535.08,216.57 525.32,230.42 542.2,231.94   "
   class="st18" />
		<g
   id="g275">
			<path
   id="path267"
   d="M529.19,228.31l2.06-2.5l0-0.01l-1.67-0.15l0.03-0.36l2.22,0.2l-0.02,0.26l-2.05,2.5l0,0.01l1.84,0.17     l-0.03,0.36l-2.4-0.22L529.19,228.31z"
   class="st11" />
			<path
   id="path269"
   d="M532.38,225.57c0.21-0.02,0.48-0.02,0.82,0.01c0.42,0.04,0.72,0.16,0.9,0.36c0.17,0.17,0.25,0.42,0.23,0.71     c-0.03,0.3-0.14,0.52-0.32,0.68c-0.25,0.22-0.62,0.31-1.04,0.27c-0.13-0.01-0.24-0.03-0.34-0.06l-0.12,1.32l-0.42-0.04     L532.38,225.57z M532.67,227.19c0.09,0.03,0.21,0.05,0.35,0.07c0.51,0.05,0.85-0.17,0.89-0.63c0.04-0.43-0.25-0.67-0.72-0.71     c-0.19-0.02-0.33-0.01-0.4,0L532.67,227.19z"
   class="st11" />
			<path
   id="path271"
   d="M536.69,226.4l-1.21-0.11l-0.2,0.8c0.08,0,0.14-0.01,0.26,0c0.24,0.02,0.48,0.1,0.67,0.23     c0.24,0.16,0.42,0.46,0.38,0.86c-0.06,0.62-0.59,1.04-1.28,0.98c-0.35-0.03-0.63-0.15-0.77-0.27l0.14-0.32     c0.12,0.09,0.37,0.21,0.66,0.24c0.41,0.04,0.78-0.2,0.81-0.62c0.03-0.41-0.22-0.73-0.85-0.78c-0.18-0.02-0.32-0.01-0.44-0.01     l0.34-1.5l1.52,0.14L536.69,226.4z"
   class="st11" />
			<path
   id="path273"
   d="M537.05,229.27l0.02-0.26l0.37-0.3c0.88-0.7,1.28-1.08,1.33-1.55c0.03-0.32-0.1-0.63-0.57-0.68     c-0.29-0.03-0.54,0.1-0.7,0.21l-0.11-0.31c0.24-0.17,0.56-0.27,0.93-0.24c0.68,0.06,0.93,0.56,0.89,1.01     c-0.05,0.58-0.52,1.02-1.25,1.6l-0.27,0.21l0,0.01l1.42,0.13l-0.03,0.36L537.05,229.27z"
   class="st11" />
		</g>
	</g>
	<g
   id="g291">
		<polygon
   id="polygon279"
   points="572.87,220.41 563.11,234.27 579.99,235.79   "
   class="st18" />
		<g
   id="g289">
			<path
   id="path281"
   d="M566.98,232.15l2.07-2.5l0-0.01l-1.67-0.15l0.03-0.36l2.22,0.2l-0.02,0.26l-2.05,2.5l0,0.01l1.84,0.17     l-0.03,0.36l-2.4-0.22L566.98,232.15z"
   class="st11" />
			<path
   id="path283"
   d="M570.17,229.41c0.21-0.02,0.48-0.02,0.82,0.01c0.42,0.04,0.72,0.16,0.9,0.36c0.17,0.17,0.25,0.42,0.23,0.71     c-0.03,0.3-0.14,0.52-0.32,0.68c-0.25,0.22-0.62,0.31-1.04,0.27c-0.13-0.01-0.24-0.03-0.34-0.06l-0.12,1.32l-0.42-0.04     L570.17,229.41z M570.46,231.04c0.09,0.03,0.21,0.05,0.35,0.07c0.51,0.05,0.85-0.17,0.89-0.63c0.04-0.43-0.25-0.67-0.72-0.71     c-0.19-0.02-0.33-0.01-0.4,0L570.46,231.04z"
   class="st11" />
			<path
   id="path285"
   d="M573.51,230.2L573.51,230.2l-0.59,0.25l-0.05-0.33l0.73-0.31l0.37,0.03l-0.29,3.17l-0.41-0.04L573.51,230.2     z"
   class="st11" />
			<path
   id="path287"
   d="M577.09,231.68c-0.1,1.08-0.55,1.64-1.25,1.57c-0.62-0.06-0.99-0.67-0.9-1.72c0.1-1.06,0.61-1.61,1.25-1.55     C576.85,230.04,577.18,230.67,577.09,231.68z M575.36,231.57c-0.07,0.82,0.14,1.32,0.53,1.35c0.44,0.04,0.7-0.45,0.77-1.26     c0.07-0.78-0.08-1.31-0.53-1.35C575.75,230.27,575.44,230.71,575.36,231.57z"
   class="st11" />
		</g>
	</g>
	<g
   id="g305">
		<polygon
   id="polygon293"
   points="536.64,242.44 526.89,256.3 543.76,257.82   "
   class="st18" />
		<g
   id="g303">
			<path
   id="path295"
   d="M530.75,254.18l2.06-2.5l0-0.01l-1.67-0.15l0.03-0.36l2.22,0.2l-0.02,0.26l-2.05,2.5l0,0.01l1.84,0.17     l-0.03,0.36l-2.4-0.22L530.75,254.18z"
   class="st11" />
			<path
   id="path297"
   d="M533.95,251.45c0.21-0.02,0.48-0.02,0.82,0.01c0.42,0.04,0.72,0.16,0.9,0.36c0.17,0.17,0.25,0.42,0.23,0.71     c-0.03,0.3-0.14,0.52-0.32,0.68c-0.25,0.22-0.62,0.31-1.04,0.27c-0.13-0.01-0.24-0.03-0.34-0.06l-0.12,1.32l-0.43-0.04     L533.95,251.45z M534.23,253.07c0.09,0.03,0.21,0.05,0.35,0.07c0.51,0.05,0.85-0.17,0.89-0.63c0.04-0.43-0.25-0.67-0.72-0.71     c-0.19-0.02-0.33-0.01-0.4,0L534.23,253.07z"
   class="st11" />
			<path
   id="path299"
   d="M537.28,252.23L537.28,252.23l-0.59,0.25l-0.05-0.33l0.73-0.31l0.37,0.03l-0.29,3.17l-0.42-0.04     L537.28,252.23z"
   class="st11" />
			<path
   id="path301"
   d="M538.72,255.15c0.02-0.16,0.06-0.4,0.07-0.61l0.26-2.85l0.43,0.04l-0.13,1.48l0.01,0     c0.18-0.25,0.46-0.4,0.84-0.36c0.59,0.05,0.96,0.58,0.89,1.29c-0.08,0.84-0.64,1.22-1.17,1.17c-0.34-0.03-0.6-0.19-0.75-0.52     l-0.01,0l-0.05,0.39L538.72,255.15z M539.25,254.25c0,0.05,0,0.11,0,0.16c0.06,0.3,0.29,0.53,0.6,0.56     c0.45,0.04,0.75-0.3,0.8-0.84c0.04-0.47-0.17-0.9-0.62-0.94c-0.29-0.03-0.58,0.15-0.7,0.47c-0.01,0.05-0.03,0.11-0.04,0.17     L539.25,254.25z"
   class="st11" />
		</g>
	</g>
	<g
   id="g319">
		<polygon
   id="polygon307"
   points="570.54,245.9 560.79,259.75 577.66,261.27   "
   class="st18" />
		<g
   id="g317">
			<path
   id="path309"
   d="M564.65,257.64l2.07-2.5l0-0.01l-1.67-0.15l0.03-0.36l2.22,0.2l-0.02,0.26l-2.05,2.5l0,0.01l1.84,0.17     l-0.03,0.36l-2.4-0.22L564.65,257.64z"
   class="st11" />
			<path
   id="path311"
   d="M567.85,254.9c0.21-0.02,0.48-0.02,0.82,0.01c0.42,0.04,0.72,0.16,0.9,0.36c0.17,0.17,0.25,0.42,0.23,0.71     c-0.03,0.3-0.14,0.52-0.32,0.68c-0.25,0.22-0.62,0.31-1.04,0.27c-0.13-0.01-0.24-0.03-0.34-0.06l-0.12,1.32l-0.42-0.04     L567.85,254.9z M568.13,256.52c0.09,0.03,0.21,0.05,0.35,0.07c0.51,0.05,0.85-0.17,0.89-0.63c0.04-0.43-0.25-0.67-0.72-0.71     c-0.19-0.02-0.33-0.01-0.4,0L568.13,256.52z"
   class="st11" />
			<path
   id="path313"
   d="M570.15,257.89c0.12,0.09,0.39,0.24,0.69,0.26c0.55,0.05,0.75-0.29,0.77-0.55     c0.04-0.44-0.35-0.67-0.76-0.71l-0.24-0.02l0.03-0.32l0.24,0.02c0.31,0.03,0.72-0.1,0.75-0.47c0.02-0.25-0.12-0.49-0.51-0.53     c-0.25-0.02-0.51,0.07-0.65,0.15l-0.08-0.32c0.18-0.11,0.51-0.2,0.85-0.17c0.62,0.06,0.87,0.45,0.84,0.84     c-0.03,0.33-0.25,0.59-0.65,0.69l0,0.01c0.38,0.11,0.67,0.43,0.63,0.88c-0.05,0.51-0.48,0.92-1.24,0.85     c-0.36-0.03-0.66-0.17-0.8-0.29L570.15,257.89z"
   class="st11" />
			<path
   id="path315"
   d="M572.8,256.89c0.02-0.24,0.04-0.44,0.04-0.64l0.38,0.03l-0.01,0.39l0.01,0c0.14-0.21,0.43-0.41,0.82-0.37     c0.33,0.03,0.82,0.27,0.74,1.08l-0.13,1.41l-0.43-0.04l0.12-1.36c0.03-0.38-0.08-0.71-0.48-0.75c-0.28-0.03-0.52,0.15-0.62,0.39     c-0.02,0.05-0.04,0.12-0.05,0.2l-0.13,1.42l-0.43-0.04L572.8,256.89z"
   class="st11" />
		</g>
	</g>
</g><g
     id="Legende">
	<rect
   id="rect323"
   height="79.33"
   width="651"
   class="st11"
   y="474.67" />
</g><g
     id="Ebene_15">
	<g
   id="g341">
		<path
   id="path327"
   d="M43.24,490.92h4.35v0.88h-3.31v2.69h3.06v0.86h-3.06V499h-1.04V490.92z" />
		<path
   id="path329"
   d="M49.27,496.29c0.02,1.43,0.94,2.02,1.99,2.02c0.76,0,1.21-0.13,1.61-0.3l0.18,0.75c-0.37,0.17-1.01,0.36-1.93,0.36    c-1.79,0-2.85-1.18-2.85-2.93s1.03-3.13,2.72-3.13c1.9,0,2.4,1.67,2.4,2.73c0,0.22-0.02,0.38-0.04,0.49H49.27z M52.36,495.53    c0.01-0.67-0.28-1.71-1.46-1.71c-1.07,0-1.54,0.98-1.62,1.71H52.36z" />
		<path
   id="path331"
   d="M54.69,490.48h1.06V499h-1.06V490.48z" />
		<path
   id="path333"
   d="M62.54,490.48v7.02c0,0.52,0.01,1.1,0.05,1.5h-0.95l-0.05-1.01h-0.02c-0.32,0.65-1.03,1.14-1.98,1.14    c-1.4,0-2.48-1.19-2.48-2.95c-0.01-1.93,1.19-3.12,2.6-3.12c0.89,0,1.49,0.42,1.75,0.89h0.02v-3.47H62.54z M61.48,495.56    c0-0.13-0.01-0.31-0.05-0.44c-0.16-0.67-0.73-1.22-1.52-1.22c-1.09,0-1.74,0.96-1.74,2.24c0,1.17,0.58,2.15,1.72,2.15    c0.71,0,1.35-0.47,1.55-1.26c0.04-0.14,0.05-0.29,0.05-0.46V495.56z" />
		<path
   id="path335"
   d="M64.71,493.2l0.77,2.95c0.17,0.65,0.32,1.25,0.43,1.85h0.04c0.13-0.59,0.32-1.21,0.52-1.83l0.95-2.96h0.89l0.9,2.9    c0.22,0.7,0.38,1.31,0.52,1.89h0.04c0.1-0.59,0.25-1.2,0.44-1.88l0.83-2.91h1.04l-1.87,5.8h-0.96l-0.89-2.77    c-0.2-0.65-0.37-1.22-0.52-1.91h-0.02c-0.14,0.7-0.32,1.3-0.53,1.92L66.34,499h-0.96l-1.75-5.8H64.71z" />
		<path
   id="path337"
   d="M73.59,496.29c0.02,1.43,0.94,2.02,1.99,2.02c0.76,0,1.21-0.13,1.61-0.3l0.18,0.75c-0.37,0.17-1.01,0.36-1.93,0.36    c-1.79,0-2.85-1.18-2.85-2.93s1.03-3.13,2.72-3.13c1.9,0,2.4,1.67,2.4,2.73c0,0.22-0.02,0.38-0.04,0.49H73.59z M76.69,495.53    c0.01-0.67-0.28-1.71-1.46-1.71c-1.07,0-1.54,0.98-1.62,1.71H76.69z" />
		<path
   id="path339"
   d="M84.02,493.2c-0.02,0.42-0.05,0.89-0.05,1.59v3.37c0,1.33-0.26,2.15-0.83,2.65c-0.56,0.53-1.38,0.7-2.11,0.7    c-0.7,0-1.46-0.17-1.93-0.48l0.26-0.8c0.38,0.24,0.98,0.46,1.7,0.46c1.08,0,1.87-0.56,1.87-2.03V498h-0.02    c-0.32,0.54-0.95,0.97-1.85,0.97c-1.44,0-2.47-1.22-2.47-2.83c0-1.97,1.28-3.08,2.61-3.08c1.01,0,1.56,0.53,1.81,1.01h0.02    l0.05-0.88H84.02z M82.93,495.49c0-0.18-0.01-0.34-0.06-0.48c-0.19-0.61-0.71-1.12-1.48-1.12c-1.01,0-1.73,0.85-1.73,2.2    c0,1.14,0.58,2.09,1.72,2.09c0.65,0,1.24-0.41,1.46-1.08c0.06-0.18,0.08-0.38,0.08-0.56V495.49z" />
	</g>
	<rect
   id="rect343"
   height="11.08"
   width="11.08"
   class="st3"
   y="488.92"
   x="27.67" />
	<g
   id="g363">
		<path
   id="path345"
   d="M49.4,518.52c-0.47,0.17-1.39,0.44-2.48,0.44c-1.22,0-2.23-0.31-3.02-1.07c-0.7-0.67-1.13-1.75-1.13-3.01    c0.01-2.41,1.67-4.17,4.38-4.17c0.94,0,1.67,0.2,2.01,0.37l-0.25,0.85c-0.43-0.19-0.97-0.35-1.79-0.35    c-1.97,0-3.25,1.22-3.25,3.25c0,2.05,1.24,3.26,3.12,3.26c0.68,0,1.15-0.1,1.39-0.22v-2.41h-1.64v-0.84h2.66V518.52z" />
		<path
   id="path347"
   d="M51,510.9c0.53-0.11,1.28-0.17,2-0.17c1.12,0,1.83,0.2,2.34,0.66c0.41,0.36,0.64,0.91,0.64,1.54    c0,1.07-0.67,1.77-1.52,2.06v0.04c0.62,0.22,1,0.79,1.19,1.63c0.26,1.13,0.46,1.91,0.62,2.22h-1.08    c-0.13-0.23-0.31-0.92-0.54-1.93c-0.24-1.12-0.67-1.54-1.62-1.57h-0.98v3.5H51V510.9z M52.04,514.58h1.07    c1.12,0,1.82-0.61,1.82-1.54c0-1.04-0.76-1.5-1.86-1.51c-0.5,0-0.86,0.05-1.03,0.1V514.58z" />
		<path
   id="path349"
   d="M58.82,516.33l-0.84,2.54H56.9l2.75-8.08h1.26l2.76,8.08h-1.12l-0.86-2.54H58.82z M61.47,515.52l-0.79-2.33    c-0.18-0.53-0.3-1.01-0.42-1.48h-0.02c-0.12,0.48-0.25,0.97-0.41,1.46l-0.79,2.34H61.47z" />
		<path
   id="path351"
   d="M64.86,510.9c0.46-0.1,1.18-0.17,1.91-0.17c1.04,0,1.72,0.18,2.22,0.59c0.42,0.31,0.67,0.79,0.67,1.43    c0,0.78-0.52,1.46-1.37,1.78v0.02c0.77,0.19,1.67,0.83,1.67,2.03c0,0.7-0.28,1.22-0.68,1.62c-0.56,0.52-1.48,0.76-2.79,0.76    c-0.72,0-1.27-0.05-1.62-0.1V510.9z M65.9,514.21h0.95c1.1,0,1.75-0.58,1.75-1.36c0-0.95-0.72-1.32-1.77-1.32    c-0.48,0-0.76,0.04-0.92,0.07V514.21z M65.9,518.08c0.2,0.04,0.5,0.05,0.88,0.05c1.08,0,2.07-0.4,2.07-1.57    c0-1.1-0.95-1.56-2.09-1.56H65.9V518.08z" />
		<path
   id="path353"
   d="M75.55,515.08H72.4V518h3.5v0.88h-4.55v-8.08h4.37v0.88H72.4v2.55h3.14V515.08z" />
		<path
   id="path355"
   d="M77.26,518.88v-8.08h1.14l2.59,4.09c0.6,0.95,1.07,1.8,1.45,2.63l0.02-0.01c-0.1-1.08-0.12-2.06-0.12-3.32v-3.38h0.98    v8.08h-1.06l-2.57-4.1c-0.56-0.9-1.1-1.82-1.51-2.7l-0.04,0.01c0.06,1.02,0.08,1.99,0.08,3.33v3.45H77.26z" />
		<path
   id="path357"
   d="M84.92,518.26c0-0.43,0.3-0.74,0.71-0.74c0.43,0,0.71,0.31,0.71,0.74c0,0.42-0.28,0.74-0.71,0.74    C85.21,519.01,84.92,518.68,84.92,518.26z M85.22,516.55l-0.17-5.76h1.15l-0.17,5.76H85.22z" />
		<path
   id="path359"
   d="M87.68,518.26c0-0.43,0.3-0.74,0.71-0.74c0.43,0,0.71,0.31,0.71,0.74c0,0.42-0.28,0.74-0.71,0.74    C87.97,519.01,87.68,518.68,87.68,518.26z M87.98,516.55l-0.17-5.76h1.15l-0.17,5.76H87.98z" />
		<path
   id="path361"
   d="M90.44,518.26c0-0.43,0.3-0.74,0.71-0.74c0.43,0,0.71,0.31,0.71,0.74c0,0.42-0.28,0.74-0.71,0.74    C90.73,519.01,90.44,518.68,90.44,518.26z M90.74,516.55l-0.17-5.76h1.15l-0.17,5.76H90.74z" />
	</g>
	<rect
   id="rect365"
   height="11.08"
   width="11.08"
   class="st4"
   y="508.79"
   x="27.67" />
	<g
   id="g385">
		<path
   id="path367"
   d="M44.56,538.75l-2.05-8.08h1.1l0.96,4.09c0.24,1.01,0.46,2.02,0.6,2.79h0.02c0.13-0.8,0.38-1.76,0.66-2.81l1.08-4.08h1.09    l0.98,4.1c0.23,0.96,0.44,1.92,0.56,2.77h0.02c0.17-0.89,0.4-1.79,0.65-2.79l1.07-4.08h1.07l-2.29,8.08H49l-1.02-4.21    c-0.25-1.03-0.42-1.82-0.53-2.64h-0.02c-0.14,0.8-0.32,1.6-0.62,2.64l-1.15,4.21H44.56z" />
		<path
   id="path369"
   d="M56.18,538.75l-0.08-0.73h-0.04c-0.32,0.46-0.95,0.86-1.77,0.86c-1.18,0-1.77-0.83-1.77-1.67c0-1.4,1.25-2.17,3.49-2.16    v-0.12c0-0.48-0.13-1.34-1.32-1.34c-0.54,0-1.1,0.17-1.51,0.43l-0.24-0.7c0.48-0.31,1.18-0.52,1.91-0.52    c1.77,0,2.21,1.21,2.21,2.37v2.17c0,0.5,0.02,1,0.1,1.39H56.18z M56.02,535.79c-1.15-0.02-2.46,0.18-2.46,1.31    c0,0.68,0.46,1.01,1,1.01c0.76,0,1.24-0.48,1.4-0.97c0.04-0.11,0.06-0.23,0.06-0.34V535.79z" />
		<path
   id="path371"
   d="M58.75,530.23h1.06v8.52h-1.06V530.23z" />
		<path
   id="path373"
   d="M66.59,530.23v7.02c0,0.52,0.01,1.1,0.05,1.5h-0.95l-0.05-1.01h-0.02c-0.32,0.65-1.03,1.14-1.98,1.14    c-1.4,0-2.48-1.19-2.48-2.95c-0.01-1.93,1.19-3.12,2.6-3.12c0.89,0,1.49,0.42,1.75,0.89h0.02v-3.47H66.59z M65.54,535.31    c0-0.13-0.01-0.31-0.05-0.44c-0.16-0.67-0.73-1.22-1.52-1.22c-1.09,0-1.74,0.96-1.74,2.24c0,1.17,0.58,2.15,1.72,2.15    c0.71,0,1.35-0.47,1.55-1.26c0.04-0.14,0.05-0.29,0.05-0.46V535.31z" />
		<path
   id="path375"
   d="M67.46,539.23l3.35-8.7h0.82l-3.36,8.7H67.46z" />
		<path
   id="path377"
   d="M72.5,530.67h4.35v0.88h-3.31v2.69h3.06v0.86h-3.06v3.66H72.5V530.67z" />
		<path
   id="path379"
   d="M78.52,536.04c0.02,1.43,0.94,2.02,1.99,2.02c0.76,0,1.21-0.13,1.61-0.3l0.18,0.75c-0.37,0.17-1.01,0.36-1.93,0.36    c-1.79,0-2.85-1.18-2.85-2.93s1.03-3.13,2.72-3.13c1.9,0,2.4,1.67,2.4,2.73c0,0.22-0.02,0.38-0.04,0.49H78.52z M81.62,535.28    c0.01-0.67-0.28-1.71-1.46-1.71c-1.07,0-1.54,0.98-1.62,1.71H81.62z" />
		<path
   id="path381"
   d="M83.95,530.23H85v8.52h-1.06V530.23z" />
		<path
   id="path383"
   d="M91.79,530.23v7.02c0,0.52,0.01,1.1,0.05,1.5h-0.95l-0.05-1.01h-0.02c-0.32,0.65-1.03,1.14-1.98,1.14    c-1.4,0-2.48-1.19-2.48-2.95c-0.01-1.93,1.19-3.12,2.6-3.12c0.89,0,1.49,0.42,1.75,0.89h0.02v-3.47H91.79z M90.74,535.31    c0-0.13-0.01-0.31-0.05-0.44c-0.16-0.67-0.73-1.22-1.52-1.22c-1.09,0-1.74,0.96-1.74,2.24c0,1.17,0.58,2.15,1.72,2.15    c0.71,0,1.35-0.47,1.55-1.26c0.04-0.14,0.05-0.29,0.05-0.46V535.31z" />
	</g>
	<rect
   id="rect387"
   height="11.08"
   width="11.08"
   class="st0"
   y="528.67"
   x="27.67" />
	<g
   id="g407">
		<path
   id="path389"
   d="M137.97,491.01c0.5-0.08,1.16-0.16,2-0.16c1.03,0,1.79,0.24,2.27,0.67c0.44,0.38,0.71,0.97,0.71,1.69    c0,0.73-0.22,1.31-0.62,1.73c-0.55,0.59-1.45,0.89-2.47,0.89c-0.31,0-0.6-0.01-0.84-0.07V499h-1.04V491.01z M139.01,494.91    c0.23,0.06,0.52,0.08,0.86,0.08c1.26,0,2.03-0.61,2.03-1.73c0-1.07-0.76-1.58-1.91-1.58c-0.46,0-0.8,0.04-0.98,0.08V494.91z" />
		<path
   id="path391"
   d="M147.22,499l-0.08-0.73h-0.04c-0.32,0.46-0.95,0.86-1.77,0.86c-1.18,0-1.77-0.83-1.77-1.67c0-1.4,1.25-2.17,3.49-2.16    v-0.12c0-0.48-0.13-1.34-1.32-1.34c-0.54,0-1.1,0.17-1.51,0.43l-0.24-0.7c0.48-0.31,1.18-0.52,1.91-0.52    c1.77,0,2.21,1.21,2.21,2.37v2.17c0,0.5,0.02,1,0.1,1.39H147.22z M147.06,496.04c-1.15-0.02-2.46,0.18-2.46,1.31    c0,0.68,0.46,1.01,1,1.01c0.76,0,1.24-0.48,1.4-0.97c0.04-0.11,0.06-0.23,0.06-0.34V496.04z" />
		<path
   id="path393"
   d="M149.79,495.01c0-0.68-0.01-1.27-0.05-1.81h0.92l0.04,1.14h0.05c0.26-0.78,0.9-1.27,1.61-1.27c0.12,0,0.2,0.01,0.3,0.04v1    c-0.11-0.02-0.22-0.04-0.36-0.04c-0.74,0-1.27,0.56-1.42,1.36c-0.02,0.14-0.05,0.31-0.05,0.49V499h-1.04V495.01z" />
		<path
   id="path395"
   d="M154.8,495.86h0.02c0.14-0.2,0.35-0.46,0.52-0.66l1.7-2h1.27l-2.24,2.39l2.55,3.42h-1.28l-2-2.78l-0.54,0.6V499h-1.04    v-8.52h1.04V495.86z" />
		<path
   id="path397"
   d="M159.59,495.09c0-0.74-0.02-1.34-0.05-1.89h0.95l0.05,1h0.02c0.43-0.71,1.12-1.13,2.06-1.13c1.4,0,2.46,1.19,2.46,2.95    c0,2.09-1.27,3.12-2.64,3.12c-0.77,0-1.44-0.34-1.79-0.91h-0.02v3.15h-1.04V495.09z M160.64,496.64c0,0.16,0.02,0.3,0.05,0.43    c0.19,0.73,0.83,1.24,1.58,1.24c1.12,0,1.76-0.91,1.76-2.24c0-1.16-0.61-2.16-1.73-2.16c-0.72,0-1.39,0.52-1.6,1.31    c-0.04,0.13-0.07,0.29-0.07,0.43V496.64z" />
		<path
   id="path399"
   d="M166.42,490.48h1.06V499h-1.06V490.48z" />
		<path
   id="path401"
   d="M172.47,499l-0.08-0.73h-0.04c-0.32,0.46-0.95,0.86-1.77,0.86c-1.18,0-1.77-0.83-1.77-1.67c0-1.4,1.25-2.17,3.49-2.16    v-0.12c0-0.48-0.13-1.34-1.32-1.34c-0.54,0-1.1,0.17-1.51,0.43l-0.24-0.7c0.48-0.31,1.18-0.52,1.91-0.52    c1.77,0,2.21,1.21,2.21,2.37v2.17c0,0.5,0.02,1,0.1,1.39H172.47z M172.31,496.04c-1.15-0.02-2.46,0.18-2.46,1.31    c0,0.68,0.46,1.01,1,1.01c0.76,0,1.24-0.48,1.4-0.97c0.04-0.11,0.06-0.23,0.06-0.34V496.04z" />
		<path
   id="path403"
   d="M176.26,491.53v1.67h1.51v0.8h-1.51v3.13c0,0.72,0.2,1.13,0.79,1.13c0.28,0,0.48-0.04,0.61-0.07l0.05,0.79    c-0.2,0.08-0.53,0.14-0.94,0.14c-0.49,0-0.89-0.16-1.14-0.44c-0.3-0.31-0.41-0.83-0.41-1.51V494h-0.9v-0.8h0.9v-1.39    L176.26,491.53z" />
		<path
   id="path405"
   d="M178.3,498.39l2.63-3.42c0.25-0.31,0.49-0.59,0.76-0.9v-0.02h-3.14v-0.85h4.43l-0.01,0.66l-2.59,3.37    c-0.24,0.32-0.48,0.61-0.74,0.91v0.02h3.39V499h-4.71V498.39z" />
	</g>
	<rect
   id="rect409"
   height="11.08"
   width="11.08"
   class="st7"
   y="488.92"
   x="122.39" />
	<g
   id="g429">
		<path
   id="path411"
   d="M137.42,518.26l4.49-6.56v-0.04h-4.1v-0.88h5.46v0.64l-4.46,6.54V518h4.52v0.88h-5.9V518.26z" />
		<path
   id="path413"
   d="M145.01,516.16c0.02,1.43,0.94,2.02,1.99,2.02c0.76,0,1.21-0.13,1.61-0.3l0.18,0.75c-0.37,0.17-1.01,0.36-1.93,0.36    c-1.79,0-2.85-1.18-2.85-2.93s1.03-3.13,2.72-3.13c1.9,0,2.4,1.67,2.4,2.73c0,0.22-0.02,0.38-0.04,0.49H145.01z M148.11,515.41    c0.01-0.67-0.28-1.71-1.46-1.71c-1.07,0-1.54,0.98-1.62,1.71H148.11z" />
		<path
   id="path415"
   d="M150.44,510.36h1.06v8.52h-1.06V510.36z" />
		<path
   id="path417"
   d="M154.54,511.4v1.67h1.51v0.8h-1.51V517c0,0.72,0.2,1.13,0.79,1.13c0.28,0,0.48-0.04,0.61-0.07l0.05,0.79    c-0.2,0.08-0.53,0.14-0.94,0.14c-0.49,0-0.89-0.16-1.14-0.44c-0.3-0.31-0.41-0.83-0.41-1.51v-3.17h-0.9v-0.8h0.9v-1.39    L154.54,511.4z" />
		<path
   id="path419"
   d="M157.24,514.96c0-0.74-0.02-1.34-0.05-1.89h0.95l0.05,1h0.02c0.43-0.71,1.12-1.13,2.06-1.13c1.4,0,2.46,1.19,2.46,2.95    c0,2.09-1.27,3.12-2.64,3.12c-0.77,0-1.44-0.34-1.79-0.91h-0.02v3.15h-1.04V514.96z M158.28,516.51c0,0.16,0.02,0.3,0.05,0.43    c0.19,0.73,0.83,1.24,1.58,1.24c1.12,0,1.76-0.91,1.76-2.24c0-1.16-0.61-2.16-1.73-2.16c-0.72,0-1.39,0.52-1.6,1.31    c-0.04,0.13-0.07,0.29-0.07,0.43V516.51z" />
		<path
   id="path421"
   d="M164.07,510.36h1.06v8.52h-1.06V510.36z" />
		<path
   id="path423"
   d="M170.11,518.88l-0.08-0.73h-0.04c-0.32,0.46-0.95,0.86-1.77,0.86c-1.18,0-1.77-0.83-1.77-1.67c0-1.4,1.25-2.17,3.49-2.16    v-0.12c0-0.48-0.13-1.34-1.32-1.34c-0.54,0-1.1,0.17-1.51,0.43l-0.24-0.7c0.48-0.31,1.18-0.52,1.91-0.52    c1.77,0,2.21,1.21,2.21,2.37v2.17c0,0.5,0.02,1,0.1,1.39H170.11z M169.96,515.91c-1.15-0.02-2.46,0.18-2.46,1.31    c0,0.68,0.46,1.01,1,1.01c0.76,0,1.24-0.48,1.4-0.97c0.04-0.11,0.06-0.23,0.06-0.34V515.91z" />
		<path
   id="path425"
   d="M173.91,511.4v1.67h1.51v0.8h-1.51V517c0,0.72,0.2,1.13,0.79,1.13c0.28,0,0.48-0.04,0.61-0.07l0.05,0.79    c-0.2,0.08-0.53,0.14-0.94,0.14c-0.49,0-0.89-0.16-1.14-0.44c-0.3-0.31-0.41-0.83-0.41-1.51v-3.17h-0.9v-0.8h0.9v-1.39    L173.91,511.4z" />
		<path
   id="path427"
   d="M175.95,518.26l2.63-3.42c0.25-0.31,0.49-0.59,0.76-0.9v-0.02h-3.14v-0.85h4.43l-0.01,0.66l-2.59,3.37    c-0.24,0.32-0.48,0.61-0.74,0.91v0.02h3.39v0.84h-4.71V518.26z" />
	</g>
	<rect
   id="rect431"
   height="11.08"
   width="11.08"
   class="st17"
   y="508.79"
   x="122.39" />
	<g
   id="g451">
		<path
   id="path433"
   d="M137.97,530.67h4.35v0.88h-3.31v2.69h3.06v0.86h-3.06v3.66h-1.04V530.67z" />
		<path
   id="path435"
   d="M143.99,536.04c0.02,1.43,0.94,2.02,1.99,2.02c0.76,0,1.21-0.13,1.61-0.3l0.18,0.75c-0.37,0.17-1.01,0.36-1.93,0.36    c-1.79,0-2.85-1.18-2.85-2.93s1.03-3.13,2.72-3.13c1.9,0,2.4,1.67,2.4,2.73c0,0.22-0.02,0.38-0.04,0.49H143.99z M147.09,535.28    c0.01-0.67-0.28-1.71-1.46-1.71c-1.07,0-1.54,0.98-1.62,1.71H147.09z" />
		<path
   id="path437"
   d="M149.27,537.67c0.31,0.2,0.86,0.42,1.39,0.42c0.77,0,1.13-0.38,1.13-0.86c0-0.5-0.3-0.78-1.08-1.07    c-1.04-0.37-1.54-0.95-1.54-1.64c0-0.94,0.76-1.7,2-1.7c0.59,0,1.1,0.17,1.43,0.36l-0.26,0.77c-0.23-0.14-0.65-0.34-1.19-0.34    c-0.62,0-0.97,0.36-0.97,0.79c0,0.48,0.35,0.7,1.1,0.98c1.01,0.38,1.52,0.89,1.52,1.75c0,1.02-0.79,1.74-2.17,1.74    c-0.64,0-1.22-0.16-1.63-0.4L149.27,537.67z" />
		<path
   id="path439"
   d="M155.44,531.28v1.67h1.51v0.8h-1.51v3.13c0,0.72,0.2,1.13,0.79,1.13c0.28,0,0.48-0.04,0.61-0.07l0.05,0.79    c-0.2,0.08-0.53,0.14-0.94,0.14c-0.49,0-0.89-0.16-1.14-0.44c-0.3-0.31-0.41-0.83-0.41-1.51v-3.17h-0.9v-0.8h0.9v-1.39    L155.44,531.28z" />
		<path
   id="path441"
   d="M157.48,538.14l2.63-3.42c0.25-0.31,0.49-0.59,0.76-0.9v-0.02h-3.14v-0.85h4.43l-0.01,0.66l-2.59,3.37    c-0.24,0.32-0.48,0.61-0.74,0.91v0.02h3.39v0.84h-4.71V538.14z" />
		<path
   id="path443"
   d="M163.78,536.04c0.02,1.43,0.94,2.02,1.99,2.02c0.76,0,1.21-0.13,1.61-0.3l0.18,0.75c-0.37,0.17-1.01,0.36-1.93,0.36    c-1.79,0-2.85-1.18-2.85-2.93s1.03-3.13,2.72-3.13c1.9,0,2.4,1.67,2.4,2.73c0,0.22-0.02,0.38-0.04,0.49H163.78z M166.88,535.28    c0.01-0.67-0.28-1.71-1.46-1.71c-1.07,0-1.54,0.98-1.62,1.71H166.88z" />
		<path
   id="path445"
   d="M169.2,530.23h1.06v8.52h-1.06V530.23z" />
		<path
   id="path447"
   d="M173.31,531.28v1.67h1.51v0.8h-1.51v3.13c0,0.72,0.2,1.13,0.79,1.13c0.28,0,0.48-0.04,0.61-0.07l0.05,0.79    c-0.2,0.08-0.53,0.14-0.94,0.14c-0.49,0-0.89-0.16-1.14-0.44c-0.3-0.31-0.41-0.83-0.41-1.51v-3.17h-0.9v-0.8h0.9v-1.39    L173.31,531.28z" />
		<path
   id="path449"
   d="M176.52,536.04c0.02,1.43,0.94,2.02,1.99,2.02c0.76,0,1.21-0.13,1.61-0.3l0.18,0.75c-0.37,0.17-1.01,0.36-1.93,0.36    c-1.79,0-2.85-1.18-2.85-2.93s1.03-3.13,2.72-3.13c1.9,0,2.4,1.67,2.4,2.73c0,0.22-0.02,0.38-0.04,0.49H176.52z M179.62,535.28    c0.01-0.67-0.28-1.71-1.46-1.71c-1.07,0-1.54,0.98-1.62,1.71H179.62z" />
	</g>
	<rect
   id="rect453"
   height="11.08"
   width="11.08"
   class="st19"
   y="528.67"
   x="122.39" />
	<g
   id="g477">
		<path
   id="path455"
   d="M229.16,497.73c0.47,0.29,1.15,0.53,1.87,0.53c1.07,0,1.69-0.56,1.69-1.38c0-0.75-0.43-1.19-1.52-1.61    c-1.32-0.47-2.14-1.15-2.14-2.29c0-1.26,1.04-2.2,2.61-2.2c0.83,0,1.43,0.19,1.79,0.4l-0.29,0.85c-0.26-0.14-0.8-0.38-1.54-0.38    c-1.1,0-1.52,0.66-1.52,1.21c0,0.76,0.49,1.13,1.61,1.56c1.37,0.53,2.06,1.19,2.06,2.37c0,1.25-0.92,2.33-2.83,2.33    c-0.78,0-1.63-0.23-2.06-0.52L229.16,497.73z" />
		<path
   id="path457"
   d="M235.18,490.48h1.06V499h-1.06V490.48z" />
		<path
   id="path459"
   d="M239.19,491.56c0.01,0.36-0.25,0.65-0.67,0.65c-0.37,0-0.64-0.29-0.64-0.65c0-0.37,0.28-0.66,0.66-0.66    C238.94,490.9,239.19,491.19,239.19,491.56z M238.01,499v-5.8h1.06v5.8H238.01z" />
		<path
   id="path461"
   d="M240.82,495.09c0-0.74-0.02-1.34-0.05-1.89h0.95l0.05,1h0.02c0.43-0.71,1.12-1.13,2.06-1.13c1.4,0,2.46,1.19,2.46,2.95    c0,2.09-1.27,3.12-2.64,3.12c-0.77,0-1.44-0.34-1.79-0.91h-0.02v3.15h-1.04V495.09z M241.87,496.64c0,0.16,0.02,0.3,0.05,0.43    c0.19,0.73,0.83,1.24,1.58,1.24c1.12,0,1.76-0.91,1.76-2.24c0-1.16-0.61-2.16-1.73-2.16c-0.72,0-1.39,0.52-1.6,1.31    c-0.04,0.13-0.07,0.29-0.07,0.43V496.64z" />
		<path
   id="path463"
   d="M247.19,493.71c0.28-1.01,0.79-2.3,1.12-2.85l0.67-0.07c-0.25,0.71-0.58,1.94-0.71,2.81L247.19,493.71z" />
		<path
   id="path465"
   d="M249.86,494.77c0-0.6-0.01-1.09-0.05-1.57h0.94l0.06,0.96h0.02c0.29-0.55,0.96-1.09,1.92-1.09c0.8,0,2.05,0.48,2.05,2.47    V499h-1.06v-3.35c0-0.94-0.35-1.72-1.34-1.72c-0.7,0-1.24,0.49-1.42,1.08c-0.05,0.13-0.07,0.31-0.07,0.49V499h-1.06V494.77z" />
		<path
   id="path467"
   d="M258.95,497.73c0.47,0.29,1.15,0.53,1.87,0.53c1.07,0,1.69-0.56,1.69-1.38c0-0.75-0.43-1.19-1.52-1.61    c-1.32-0.47-2.14-1.15-2.14-2.29c0-1.26,1.04-2.2,2.61-2.2c0.83,0,1.43,0.19,1.79,0.4l-0.29,0.85c-0.26-0.14-0.8-0.38-1.54-0.38    c-1.1,0-1.52,0.66-1.52,1.21c0,0.76,0.49,1.13,1.61,1.56c1.37,0.53,2.06,1.19,2.06,2.37c0,1.25-0.92,2.33-2.83,2.33    c-0.78,0-1.63-0.23-2.06-0.52L258.95,497.73z" />
		<path
   id="path469"
   d="M264.98,490.48h1.06V499h-1.06V490.48z" />
		<path
   id="path471"
   d="M268.99,491.56c0.01,0.36-0.25,0.65-0.67,0.65c-0.37,0-0.64-0.29-0.64-0.65c0-0.37,0.28-0.66,0.66-0.66    C268.73,490.9,268.99,491.19,268.99,491.56z M267.81,499v-5.8h1.06v5.8H267.81z" />
		<path
   id="path473"
   d="M275.63,490.48v7.02c0,0.52,0.01,1.1,0.05,1.5h-0.95l-0.05-1.01h-0.02c-0.32,0.65-1.03,1.14-1.98,1.14    c-1.4,0-2.48-1.19-2.48-2.95c-0.01-1.93,1.19-3.12,2.6-3.12c0.89,0,1.49,0.42,1.75,0.89h0.02v-3.47H275.63z M274.58,495.56    c0-0.13-0.01-0.31-0.05-0.44c-0.16-0.67-0.73-1.22-1.52-1.22c-1.09,0-1.74,0.96-1.74,2.24c0,1.17,0.58,2.15,1.72,2.15    c0.71,0,1.35-0.47,1.55-1.26c0.04-0.14,0.05-0.29,0.05-0.46V495.56z" />
		<path
   id="path475"
   d="M277.97,496.29c0.02,1.43,0.94,2.02,1.99,2.02c0.76,0,1.21-0.13,1.61-0.3l0.18,0.75c-0.37,0.17-1.01,0.36-1.93,0.36    c-1.79,0-2.85-1.18-2.85-2.93s1.03-3.13,2.72-3.13c1.9,0,2.4,1.67,2.4,2.73c0,0.22-0.02,0.38-0.04,0.49H277.97z M281.07,495.53    c0.01-0.67-0.28-1.71-1.46-1.71c-1.07,0-1.54,0.98-1.62,1.71H281.07z" />
	</g>
	<rect
   id="rect479"
   height="11.08"
   width="11.08"
   class="st14"
   y="488.92"
   x="213.72" />
	<g
   id="g501">
		<path
   id="path481"
   d="M229.3,510.79h4.35v0.88h-3.31v2.69h3.06v0.86h-3.06v3.66h-1.04V510.79z" />
		<path
   id="path483"
   d="M234.91,510.36h1.06v8.52h-1.06V510.36z" />
		<path
   id="path485"
   d="M242.6,517.29c0,0.6,0.01,1.13,0.05,1.58h-0.94l-0.06-0.95h-0.02c-0.28,0.47-0.89,1.08-1.92,1.08c-0.91,0-2-0.5-2-2.54    v-3.39h1.06v3.21c0,1.1,0.34,1.85,1.3,1.85c0.71,0,1.2-0.49,1.39-0.96c0.06-0.16,0.1-0.35,0.1-0.54v-3.56h1.06V517.29z" />
		<path
   id="path487"
   d="M244.35,514.64c0-0.6-0.01-1.09-0.05-1.57h0.94l0.06,0.96h0.02c0.29-0.55,0.96-1.09,1.92-1.09c0.8,0,2.05,0.48,2.05,2.47    v3.47h-1.06v-3.35c0-0.94-0.35-1.72-1.34-1.72c-0.7,0-1.24,0.49-1.42,1.08c-0.05,0.13-0.07,0.31-0.07,0.49v3.49h-1.06V514.64z" />
		<path
   id="path489"
   d="M252.05,515.73h0.02c0.14-0.2,0.35-0.46,0.52-0.66l1.7-2h1.27l-2.24,2.39l2.55,3.42h-1.28l-2-2.78l-0.54,0.6v2.18h-1.04    v-8.52h1.04V515.73z" />
		<path
   id="path491"
   d="M257.18,513.07l1.27,3.43c0.13,0.38,0.28,0.84,0.37,1.19h0.02c0.11-0.35,0.23-0.79,0.37-1.21l1.15-3.41h1.12l-1.58,4.14    c-0.76,1.99-1.27,3.01-1.99,3.63c-0.52,0.46-1.03,0.64-1.29,0.68l-0.26-0.89c0.26-0.08,0.61-0.25,0.92-0.52    c0.29-0.23,0.65-0.64,0.89-1.17c0.05-0.11,0.08-0.19,0.08-0.25c0-0.06-0.02-0.14-0.07-0.28l-2.15-5.35H257.18z" />
		<path
   id="path493"
   d="M262.4,518.88c0.02-0.4,0.05-0.98,0.05-1.5v-7.02h1.04v3.65h0.02c0.37-0.65,1.04-1.07,1.98-1.07    c1.44,0,2.46,1.2,2.45,2.96c0,2.08-1.31,3.11-2.6,3.11c-0.84,0-1.51-0.32-1.94-1.09h-0.04l-0.05,0.96H262.4z M263.49,516.55    c0,0.13,0.02,0.26,0.05,0.38c0.2,0.73,0.82,1.24,1.58,1.24c1.1,0,1.76-0.9,1.76-2.23c0-1.16-0.6-2.16-1.73-2.16    c-0.72,0-1.39,0.49-1.61,1.3c-0.02,0.12-0.06,0.26-0.06,0.43V516.55z" />
		<path
   id="path495"
   d="M272.49,518.88l-0.08-0.73h-0.04c-0.32,0.46-0.95,0.86-1.77,0.86c-1.18,0-1.77-0.83-1.77-1.67c0-1.4,1.25-2.17,3.49-2.16    v-0.12c0-0.48-0.13-1.34-1.32-1.34c-0.54,0-1.1,0.17-1.51,0.43l-0.24-0.7c0.48-0.31,1.18-0.52,1.91-0.52    c1.77,0,2.21,1.21,2.21,2.37v2.17c0,0.5,0.02,1,0.1,1.39H272.49z M272.33,515.91c-1.15-0.02-2.46,0.18-2.46,1.31    c0,0.68,0.46,1.01,1,1.01c0.76,0,1.24-0.48,1.4-0.97c0.04-0.11,0.06-0.23,0.06-0.34V515.91z" />
		<path
   id="path497"
   d="M275.06,510.36h1.06v8.52h-1.06V510.36z" />
		<path
   id="path499"
   d="M277.89,510.36h1.06v8.52h-1.06V510.36z" />
	</g>
	<rect
   id="rect503"
   height="11.08"
   width="11.08"
   class="st13"
   y="508.79"
   x="213.72" />
	<g
   id="g513">
		<path
   id="path505"
   d="M229.3,530.76c0.5-0.08,1.16-0.16,2-0.16c1.03,0,1.79,0.24,2.27,0.67c0.44,0.38,0.71,0.97,0.71,1.69    c0,0.73-0.22,1.31-0.62,1.73c-0.55,0.59-1.45,0.89-2.47,0.89c-0.31,0-0.6-0.01-0.84-0.07v3.24h-1.04V530.76z M230.35,534.66    c0.23,0.06,0.52,0.08,0.86,0.08c1.26,0,2.03-0.61,2.03-1.73c0-1.07-0.76-1.58-1.91-1.58c-0.46,0-0.8,0.04-0.98,0.08V534.66z" />
		<path
   id="path507"
   d="M240.6,535.8c0,2.15-1.49,3.08-2.89,3.08c-1.57,0-2.78-1.15-2.78-2.99c0-1.94,1.27-3.08,2.88-3.08    C239.48,532.81,240.6,534.02,240.6,535.8z M236,535.86c0,1.27,0.73,2.23,1.76,2.23c1.01,0,1.76-0.95,1.76-2.25    c0-0.98-0.49-2.23-1.74-2.23C236.54,533.6,236,534.76,236,535.86z" />
		<path
   id="path509"
   d="M247.19,535.8c0,2.15-1.49,3.08-2.89,3.08c-1.57,0-2.78-1.15-2.78-2.99c0-1.94,1.27-3.08,2.88-3.08    C246.06,532.81,247.19,534.02,247.19,535.8z M242.59,535.86c0,1.27,0.73,2.23,1.76,2.23c1.01,0,1.76-0.95,1.76-2.25    c0-0.98-0.49-2.23-1.74-2.23C243.13,533.6,242.59,534.76,242.59,535.86z" />
		<path
   id="path511"
   d="M248.53,530.23h1.06v8.52h-1.06V530.23z" />
	</g>
	<rect
   id="rect515"
   height="11.08"
   width="11.08"
   class="st12"
   y="528.67"
   x="213.72" />
	<g
   id="g547">
		<path
   id="path517"
   d="M330.9,491.8h-2.46v-0.89h5.99v0.89h-2.47v7.2h-1.06V491.8z" />
		<path
   id="path519"
   d="M339.7,496.05c0,2.15-1.49,3.08-2.89,3.08c-1.57,0-2.78-1.15-2.78-2.99c0-1.94,1.27-3.08,2.88-3.08    C338.57,493.06,339.7,494.27,339.7,496.05z M335.09,496.11c0,1.27,0.73,2.23,1.76,2.23c1.01,0,1.76-0.95,1.76-2.25    c0-0.98-0.49-2.23-1.74-2.23S335.09,495.01,335.09,496.11z" />
		<path
   id="path521"
   d="M341.37,493.2l0.77,2.95c0.17,0.65,0.32,1.25,0.43,1.85h0.04c0.13-0.59,0.32-1.21,0.52-1.83l0.95-2.96h0.89l0.9,2.9    c0.22,0.7,0.38,1.31,0.52,1.89h0.04c0.1-0.59,0.25-1.2,0.44-1.88l0.83-2.91h1.04l-1.87,5.8h-0.96l-0.89-2.77    c-0.2-0.65-0.37-1.22-0.52-1.91h-0.02c-0.14,0.7-0.32,1.3-0.53,1.92L343,499h-0.96l-1.75-5.8H341.37z" />
		<path
   id="path523"
   d="M350.25,496.29c0.02,1.43,0.94,2.02,1.99,2.02c0.75,0,1.21-0.13,1.61-0.3l0.18,0.75c-0.37,0.17-1.01,0.36-1.93,0.36    c-1.79,0-2.85-1.18-2.85-2.93s1.03-3.13,2.72-3.13c1.9,0,2.4,1.67,2.4,2.73c0,0.22-0.02,0.38-0.04,0.49H350.25z M353.34,495.53    c0.01-0.67-0.28-1.71-1.46-1.71c-1.07,0-1.54,0.98-1.62,1.71H353.34z" />
		<path
   id="path525"
   d="M355.67,495.01c0-0.68-0.01-1.27-0.05-1.81h0.92l0.04,1.14h0.05c0.26-0.78,0.9-1.27,1.61-1.27c0.12,0,0.2,0.01,0.3,0.04v1    c-0.11-0.02-0.22-0.04-0.36-0.04c-0.74,0-1.27,0.56-1.42,1.36c-0.02,0.14-0.05,0.31-0.05,0.49V499h-1.04V495.01z" />
		<path
   id="path527"
   d="M365.22,492.62v2.82h2.71v0.72h-2.71V499h-0.77v-2.84h-2.71v-0.72h2.71v-2.82H365.22z" />
		<path
   id="path529"
   d="M371.87,491.01c0.5-0.08,1.16-0.16,2-0.16c1.03,0,1.79,0.24,2.27,0.67c0.44,0.38,0.71,0.97,0.71,1.69    c0,0.73-0.22,1.31-0.62,1.73c-0.55,0.59-1.45,0.89-2.47,0.89c-0.31,0-0.6-0.01-0.84-0.07V499h-1.04V491.01z M372.92,494.91    c0.23,0.06,0.52,0.08,0.86,0.08c1.26,0,2.03-0.61,2.03-1.73c0-1.07-0.76-1.58-1.91-1.58c-0.46,0-0.8,0.04-0.98,0.08V494.91z" />
		<path
   id="path531"
   d="M383.17,496.05c0,2.15-1.49,3.08-2.89,3.08c-1.57,0-2.78-1.15-2.78-2.99c0-1.94,1.27-3.08,2.88-3.08    C382.05,493.06,383.17,494.27,383.17,496.05z M378.57,496.11c0,1.27,0.73,2.23,1.76,2.23c1.01,0,1.76-0.95,1.76-2.25    c0-0.98-0.49-2.23-1.74-2.23S378.57,495.01,378.57,496.11z" />
		<path
   id="path533"
   d="M384.51,490.48h1.06V499h-1.06V490.48z" />
		<path
   id="path535"
   d="M387.93,496.29c0.02,1.43,0.93,2.02,1.99,2.02c0.76,0,1.21-0.13,1.61-0.3l0.18,0.75c-0.37,0.17-1.01,0.36-1.93,0.36    c-1.79,0-2.85-1.18-2.85-2.93s1.03-3.13,2.72-3.13c1.89,0,2.4,1.67,2.4,2.73c0,0.22-0.02,0.38-0.04,0.49H387.93z M391.02,495.53    c0.01-0.67-0.28-1.71-1.46-1.71c-1.07,0-1.54,0.98-1.62,1.71H391.02z" />
		<path
   id="path537"
   d="M398.37,490.48v7.02c0,0.52,0.01,1.1,0.05,1.5h-0.95l-0.05-1.01h-0.02c-0.32,0.65-1.03,1.14-1.98,1.14    c-1.4,0-2.48-1.19-2.48-2.95c-0.01-1.93,1.19-3.12,2.6-3.12c0.89,0,1.49,0.42,1.75,0.89h0.02v-3.47H398.37z M397.31,495.56    c0-0.13-0.01-0.31-0.05-0.44c-0.16-0.67-0.73-1.22-1.52-1.22c-1.09,0-1.74,0.96-1.74,2.24c0,1.17,0.58,2.15,1.71,2.15    c0.71,0,1.36-0.47,1.55-1.26c0.04-0.14,0.05-0.29,0.05-0.46V495.56z" />
		<path
   id="path539"
   d="M403.33,499l-0.08-0.73h-0.04c-0.32,0.46-0.95,0.86-1.77,0.86c-1.18,0-1.78-0.83-1.78-1.67c0-1.4,1.25-2.17,3.49-2.16    v-0.12c0-0.48-0.13-1.34-1.32-1.34c-0.54,0-1.1,0.17-1.51,0.43l-0.24-0.7c0.48-0.31,1.17-0.52,1.91-0.52    c1.77,0,2.21,1.21,2.21,2.37v2.17c0,0.5,0.02,1,0.1,1.39H403.33z M403.18,496.04c-1.15-0.02-2.46,0.18-2.46,1.31    c0,0.68,0.46,1.01,1,1.01c0.76,0,1.24-0.48,1.4-0.97c0.04-0.11,0.06-0.23,0.06-0.34V496.04z" />
		<path
   id="path541"
   d="M405.9,494.77c0-0.6-0.01-1.09-0.05-1.57h0.94l0.06,0.96h0.02c0.29-0.55,0.96-1.09,1.92-1.09c0.8,0,2.05,0.48,2.05,2.47    V499h-1.06v-3.35c0-0.94-0.35-1.72-1.34-1.72c-0.7,0-1.24,0.49-1.42,1.08c-0.05,0.13-0.07,0.31-0.07,0.49V499h-1.06V494.77z" />
		<path
   id="path543"
   d="M416.7,498.78c-0.28,0.14-0.89,0.34-1.67,0.34c-1.75,0-2.89-1.19-2.89-2.96c0-1.79,1.22-3.08,3.12-3.08    c0.62,0,1.18,0.16,1.46,0.3l-0.24,0.82c-0.25-0.14-0.65-0.28-1.22-0.28c-1.33,0-2.05,0.98-2.05,2.19c0,1.34,0.86,2.17,2.01,2.17    c0.6,0,1-0.16,1.3-0.29L416.7,498.78z" />
		<path
   id="path545"
   d="M418.46,496.29c0.02,1.43,0.93,2.02,1.99,2.02c0.76,0,1.21-0.13,1.61-0.3l0.18,0.75c-0.37,0.17-1.01,0.36-1.93,0.36    c-1.79,0-2.85-1.18-2.85-2.93s1.03-3.13,2.72-3.13c1.89,0,2.4,1.67,2.4,2.73c0,0.22-0.02,0.38-0.04,0.49H418.46z M421.55,495.53    c0.01-0.67-0.28-1.71-1.46-1.71c-1.07,0-1.54,0.98-1.62,1.71H421.55z" />
	</g>
	<rect
   id="rect549"
   height="11.08"
   width="11.08"
   class="st9"
   y="488.92"
   x="313.79" />
	<g
   id="g563">
		<path
   id="path551"
   d="M329.37,510.9c0.64-0.1,1.39-0.17,2.22-0.17c1.5,0,2.57,0.35,3.27,1.01c0.72,0.66,1.14,1.59,1.14,2.9    c0,1.32-0.41,2.4-1.16,3.14c-0.75,0.76-2,1.16-3.57,1.16c-0.74,0-1.37-0.04-1.9-0.1V510.9z M330.41,518.05    c0.26,0.05,0.65,0.06,1.05,0.06c2.23,0,3.44-1.25,3.44-3.43c0.01-1.91-1.07-3.12-3.27-3.12c-0.54,0-0.95,0.05-1.22,0.11V518.05z" />
		<path
   id="path553"
   d="M338.5,511.44c0.01,0.36-0.25,0.65-0.67,0.65c-0.37,0-0.64-0.29-0.64-0.65c0-0.37,0.28-0.66,0.66-0.66    C338.25,510.78,338.5,511.07,338.5,511.44z M337.33,518.88v-5.8h1.06v5.8H337.33z" />
		<path
   id="path555"
   d="M340.63,513.07l0.83,1.25c0.22,0.32,0.4,0.62,0.59,0.95h0.04c0.19-0.35,0.38-0.65,0.58-0.96l0.82-1.24h1.14l-1.98,2.81    l2.04,3h-1.2l-0.85-1.31c-0.23-0.34-0.42-0.66-0.62-1.01h-0.02c-0.19,0.35-0.4,0.66-0.61,1.01l-0.84,1.31h-1.16l2.06-2.96    l-1.97-2.84H340.63z" />
		<path
   id="path557"
   d="M346.86,511.44c0.01,0.36-0.25,0.65-0.67,0.65c-0.37,0-0.64-0.29-0.64-0.65c0-0.37,0.28-0.66,0.66-0.66    C346.61,510.78,346.86,511.07,346.86,511.44z M345.69,518.88v-5.8h1.06v5.8H345.69z" />
		<path
   id="path559"
   d="M349.08,516.16c0.02,1.43,0.94,2.02,1.99,2.02c0.75,0,1.21-0.13,1.61-0.3l0.18,0.75c-0.37,0.17-1.01,0.36-1.93,0.36    c-1.79,0-2.85-1.18-2.85-2.93s1.03-3.13,2.72-3.13c1.9,0,2.4,1.67,2.4,2.73c0,0.22-0.02,0.38-0.04,0.49H349.08z M352.18,515.41    c0.01-0.67-0.28-1.71-1.46-1.71c-1.07,0-1.54,0.98-1.62,1.71H352.18z" />
		<path
   id="path561"
   d="M354.37,517.8c0.31,0.2,0.86,0.42,1.39,0.42c0.77,0,1.13-0.38,1.13-0.86c0-0.5-0.3-0.78-1.08-1.07    c-1.04-0.37-1.54-0.95-1.54-1.64c0-0.94,0.75-1.7,2-1.7c0.59,0,1.1,0.17,1.43,0.36l-0.26,0.77c-0.23-0.14-0.65-0.34-1.19-0.34    c-0.62,0-0.97,0.36-0.97,0.79c0,0.48,0.35,0.7,1.1,0.98c1.01,0.38,1.52,0.89,1.52,1.75c0,1.02-0.79,1.74-2.17,1.74    c-0.64,0-1.22-0.16-1.63-0.4L354.37,517.8z" />
	</g>
	<rect
   id="rect565"
   height="11.08"
   width="11.08"
   class="st20"
   y="508.79"
   x="313.79" />
	<g
   id="g597">
		<path
   id="path567"
   d="M458.91,510.79h4.35v0.88h-3.31v2.69h3.06v0.86h-3.06v3.66h-1.04V510.79z" />
		<path
   id="path569"
   d="M464.94,516.16c0.02,1.43,0.93,2.02,1.99,2.02c0.76,0,1.21-0.13,1.61-0.3l0.18,0.75c-0.37,0.17-1.01,0.36-1.93,0.36    c-1.79,0-2.85-1.18-2.85-2.93s1.03-3.13,2.72-3.13c1.89,0,2.4,1.67,2.4,2.73c0,0.22-0.02,0.38-0.04,0.49H464.94z M468.03,515.41    c0.01-0.67-0.28-1.71-1.46-1.71c-1.07,0-1.54,0.98-1.62,1.71H468.03z" />
		<path
   id="path571"
   d="M470.21,517.8c0.31,0.2,0.86,0.42,1.39,0.42c0.77,0,1.13-0.38,1.13-0.86c0-0.5-0.3-0.78-1.08-1.07    c-1.04-0.37-1.54-0.95-1.54-1.64c0-0.94,0.76-1.7,2-1.7c0.59,0,1.1,0.17,1.43,0.36l-0.26,0.77c-0.23-0.14-0.65-0.34-1.19-0.34    c-0.62,0-0.97,0.36-0.97,0.79c0,0.48,0.35,0.7,1.1,0.98c1.01,0.38,1.52,0.89,1.52,1.75c0,1.02-0.79,1.74-2.17,1.74    c-0.63,0-1.22-0.16-1.63-0.4L470.21,517.8z" />
		<path
   id="path573"
   d="M476.38,511.4v1.67h1.51v0.8h-1.51V517c0,0.72,0.2,1.13,0.79,1.13c0.28,0,0.48-0.04,0.61-0.07l0.05,0.79    c-0.2,0.08-0.53,0.14-0.94,0.14c-0.49,0-0.89-0.16-1.14-0.44c-0.3-0.31-0.41-0.83-0.41-1.51v-3.17h-0.9v-0.8h0.9v-1.39    L476.38,511.4z" />
		<path
   id="path575"
   d="M480.26,511.44c0.01,0.36-0.25,0.65-0.67,0.65c-0.37,0-0.64-0.29-0.64-0.65c0-0.37,0.28-0.66,0.66-0.66    C480.01,510.78,480.26,511.07,480.26,511.44z M479.08,518.88v-5.8h1.06v5.8H479.08z" />
		<path
   id="path577"
   d="M482.3,513.07l1.14,3.26c0.19,0.53,0.35,1.01,0.47,1.49h0.04c0.13-0.48,0.3-0.96,0.49-1.49l1.13-3.26h1.1l-2.28,5.8h-1.01    l-2.21-5.8H482.3z" />
		<path
   id="path579"
   d="M490.83,518.88l-0.08-0.73h-0.04c-0.32,0.46-0.95,0.86-1.77,0.86c-1.18,0-1.78-0.83-1.78-1.67c0-1.4,1.25-2.17,3.49-2.16    v-0.12c0-0.48-0.13-1.34-1.32-1.34c-0.54,0-1.1,0.17-1.51,0.43l-0.24-0.7c0.48-0.31,1.17-0.52,1.91-0.52    c1.77,0,2.21,1.21,2.21,2.37v2.17c0,0.5,0.02,1,0.1,1.39H490.83z M490.67,515.91c-1.15-0.02-2.46,0.18-2.46,1.31    c0,0.68,0.46,1.01,1,1.01c0.76,0,1.24-0.48,1.4-0.97c0.04-0.11,0.06-0.23,0.06-0.34V515.91z" />
		<path
   id="path581"
   d="M493.4,510.36h1.06v8.52h-1.06V510.36z" />
		<path
   id="path583"
   d="M504.96,518.52c-0.47,0.17-1.39,0.44-2.48,0.44c-1.22,0-2.23-0.31-3.02-1.07c-0.7-0.67-1.13-1.75-1.13-3.01    c0.01-2.41,1.67-4.17,4.38-4.17c0.94,0,1.67,0.2,2.01,0.37l-0.25,0.85c-0.43-0.19-0.97-0.35-1.79-0.35    c-1.97,0-3.25,1.22-3.25,3.25c0,2.05,1.24,3.26,3.12,3.26c0.68,0,1.15-0.1,1.39-0.22v-2.41h-1.64v-0.84h2.66V518.52z" />
		<path
   id="path585"
   d="M507.17,516.16c0.02,1.43,0.94,2.02,1.99,2.02c0.75,0,1.21-0.13,1.61-0.3l0.18,0.75c-0.37,0.17-1.01,0.36-1.93,0.36    c-1.79,0-2.85-1.18-2.85-2.93s1.03-3.13,2.72-3.13c1.9,0,2.4,1.67,2.4,2.73c0,0.22-0.02,0.38-0.04,0.49H507.17z M510.27,515.41    c0.01-0.67-0.28-1.71-1.46-1.71c-1.07,0-1.54,0.98-1.62,1.71H510.27z" />
		<path
   id="path587"
   d="M512.6,510.36h1.06v8.52h-1.06V510.36z" />
		<path
   id="path589"
   d="M518.65,518.88l-0.08-0.73h-0.04c-0.32,0.46-0.95,0.86-1.78,0.86c-1.17,0-1.77-0.83-1.77-1.67c0-1.4,1.25-2.17,3.49-2.16    v-0.12c0-0.48-0.13-1.34-1.32-1.34c-0.54,0-1.1,0.17-1.51,0.43l-0.24-0.7c0.48-0.31,1.18-0.52,1.91-0.52    c1.78,0,2.21,1.21,2.21,2.37v2.17c0,0.5,0.02,1,0.1,1.39H518.65z M515.73,511.43c0-0.34,0.28-0.61,0.61-0.61s0.59,0.26,0.59,0.61    c0,0.32-0.24,0.61-0.59,0.61C515.98,512.04,515.73,511.75,515.73,511.43z M518.49,515.91c-1.15-0.02-2.46,0.18-2.46,1.31    c0,0.68,0.46,1.01,1,1.01c0.75,0,1.24-0.48,1.4-0.97c0.04-0.11,0.06-0.23,0.06-0.34V515.91z M517.96,511.43    c0-0.34,0.26-0.61,0.6-0.61s0.59,0.26,0.59,0.61c0,0.32-0.24,0.61-0.59,0.61C518.2,512.04,517.96,511.75,517.96,511.43z" />
		<path
   id="path591"
   d="M521.21,514.64c0-0.6-0.01-1.09-0.05-1.57h0.94l0.06,0.96h0.02c0.29-0.55,0.96-1.09,1.92-1.09c0.8,0,2.05,0.48,2.05,2.47    v3.47h-1.06v-3.35c0-0.94-0.35-1.72-1.34-1.72c-0.7,0-1.24,0.49-1.42,1.08c-0.05,0.13-0.07,0.31-0.07,0.49v3.49h-1.06V514.64z" />
		<path
   id="path593"
   d="M532.89,510.36v7.02c0,0.52,0.01,1.1,0.05,1.5h-0.95l-0.05-1.01h-0.02c-0.32,0.65-1.03,1.14-1.98,1.14    c-1.4,0-2.48-1.19-2.48-2.95c-0.01-1.93,1.19-3.12,2.6-3.12c0.89,0,1.49,0.42,1.75,0.89h0.02v-3.47H532.89z M531.83,515.43    c0-0.13-0.01-0.31-0.05-0.44c-0.16-0.67-0.73-1.22-1.52-1.22c-1.09,0-1.74,0.96-1.74,2.24c0,1.17,0.58,2.15,1.72,2.15    c0.71,0,1.35-0.47,1.55-1.26c0.04-0.14,0.05-0.29,0.05-0.46V515.43z" />
		<path
   id="path595"
   d="M535.23,516.16c0.02,1.43,0.93,2.02,1.99,2.02c0.76,0,1.21-0.13,1.61-0.3l0.18,0.75c-0.37,0.17-1.01,0.36-1.93,0.36    c-1.79,0-2.85-1.18-2.85-2.93s1.03-3.13,2.72-3.13c1.89,0,2.4,1.67,2.4,2.73c0,0.22-0.02,0.38-0.04,0.49H535.23z M538.33,515.41    c0.01-0.67-0.28-1.71-1.46-1.71c-1.07,0-1.54,0.98-1.62,1.71H538.33z" />
	</g>
	<rect
   id="rect599"
   height="11.08"
   width="11.08"
   class="st1"
   y="508.79"
   x="443.33" />
	<g
   id="g613">
		<path
   id="path601"
   d="M329.37,530.77c0.64-0.1,1.39-0.17,2.22-0.17c1.5,0,2.57,0.35,3.27,1.01c0.72,0.66,1.14,1.59,1.14,2.9    c0,1.32-0.41,2.4-1.16,3.14c-0.75,0.76-2,1.16-3.57,1.16c-0.74,0-1.37-0.04-1.9-0.1V530.77z M330.41,537.92    c0.26,0.05,0.65,0.06,1.05,0.06c2.23,0,3.44-1.25,3.44-3.43c0.01-1.91-1.07-3.12-3.27-3.12c-0.54,0-0.95,0.05-1.22,0.11V537.92z" />
		<path
   id="path603"
   d="M342.22,537.17c0,0.6,0.01,1.13,0.05,1.58h-0.94l-0.06-0.95h-0.02c-0.28,0.47-0.89,1.08-1.92,1.08c-0.91,0-2-0.5-2-2.54    v-3.39h1.06v3.21c0,1.1,0.34,1.85,1.29,1.85c0.71,0,1.2-0.49,1.39-0.96c0.06-0.16,0.1-0.35,0.1-0.54v-3.56h1.06V537.17z" />
		<path
   id="path605"
   d="M343.83,537.67c0.31,0.2,0.86,0.42,1.39,0.42c0.77,0,1.13-0.38,1.13-0.86c0-0.5-0.3-0.78-1.08-1.07    c-1.04-0.37-1.54-0.95-1.54-1.64c0-0.94,0.76-1.7,2-1.7c0.59,0,1.1,0.17,1.43,0.36l-0.26,0.77c-0.23-0.14-0.65-0.34-1.19-0.34    c-0.62,0-0.97,0.36-0.97,0.79c0,0.48,0.35,0.7,1.1,0.98c1.01,0.38,1.52,0.89,1.52,1.75c0,1.02-0.79,1.74-2.17,1.74    c-0.63,0-1.22-0.16-1.63-0.4L343.83,537.67z" />
		<path
   id="path607"
   d="M352.86,538.53c-0.28,0.14-0.89,0.34-1.67,0.34c-1.75,0-2.89-1.19-2.89-2.96c0-1.79,1.22-3.08,3.12-3.08    c0.62,0,1.18,0.16,1.46,0.3l-0.24,0.82c-0.25-0.14-0.65-0.28-1.22-0.28c-1.33,0-2.05,0.98-2.05,2.19c0,1.34,0.86,2.17,2.01,2.17    c0.6,0,1-0.16,1.3-0.29L352.86,538.53z" />
		<path
   id="path609"
   d="M354.1,530.23h1.06v3.62h0.02c0.17-0.3,0.43-0.56,0.76-0.74c0.31-0.18,0.68-0.3,1.08-0.3c0.78,0,2.03,0.48,2.03,2.48v3.45    h-1.06v-3.33c0-0.94-0.35-1.73-1.34-1.73c-0.68,0-1.22,0.48-1.42,1.06c-0.06,0.14-0.07,0.3-0.07,0.5v3.5h-1.06V530.23z" />
		<path
   id="path611"
   d="M361.35,536.04c0.02,1.43,0.93,2.02,1.99,2.02c0.76,0,1.21-0.13,1.61-0.3l0.18,0.75c-0.37,0.17-1.01,0.36-1.93,0.36    c-1.79,0-2.85-1.18-2.85-2.93s1.03-3.13,2.72-3.13c1.89,0,2.4,1.67,2.4,2.73c0,0.22-0.02,0.38-0.04,0.49H361.35z M364.44,535.28    c0.01-0.67-0.28-1.71-1.46-1.71c-1.07,0-1.54,0.98-1.62,1.71H364.44z" />
	</g>
	<rect
   id="rect615"
   height="11.08"
   width="11.08"
   class="st21"
   y="528.67"
   x="313.79" />
	
		<rect
   id="rect617"
   height="10.54"
   width="10.54"
   class="st20"
   transform="matrix(0.8518 -0.5238 0.5238 0.8518 -14.2907 182.5862)"
   y="111.28"
   x="310.32" />
	
		<rect
   id="rect619"
   height="10.54"
   width="10.54"
   class="st20"
   transform="matrix(0.8518 -0.5238 0.5238 0.8518 -9.0399 187.6499)"
   y="104.53"
   x="321.89" />
	<rect
   id="rect621"
   height="11.89"
   width="11.89"
   class="st21"
   y="299.43"
   x="571.55" />
</g></g>
</svg>