<svg version="1" xmlns="http://www.w3.org/2000/svg" width="682.667" height="682.667" viewBox="0 0 512.000000 512.000000"><path d="M176.1 1.1c-16.3 2.7-35.1 11.3-48.7 22.1C109.9 37.1 95.9 61.8 92.1 86c-1.5 9-1.5 319 0 328 3 18.7 11.5 37.1 24.5 52.7 17.9 21.6 41.1 34.3 67.6 37.2 13 1.5 142.6 1.5 155.6 0 46.4-5.1 82-40.7 87.1-87.1 1.5-13.4 1.5-308.2 0-321.6-1.4-12.9-5.7-26.2-13.1-40.2-10.4-19.7-22.1-31.9-40.1-41.9-9.9-5.4-23.9-10.3-34.7-12-8.1-1.3-155.1-1.3-162.9 0zM265 8c1.7 2.2 2.9 4 2.5 4-.3 0 .1.7.9 1.6 1.8 1.8 2 3 .7 3.9-1.4.8-10.1-10.3-9.4-12 .8-2.3 1.9-1.8 5.3 2.5zm-12.7 1.9c.3 1.2-.6 3.2-2.2 5.1-2.2 2.7-2.8 3-3.8 1.8-1-1.1-.7-2.2 1.4-5.1 3-4.2 3.9-4.5 4.6-1.8zm21.9 11.6c.3 1.3.1 2.2-.3 1.9-.9-.5-1.3-4.4-.5-4.4.2 0 .6 1.1.8 2.5zM242 23.3c0 1.2-10.8 5.9-12 5.2-2.2-1.4-.7-3.1 4.8-5.6 5.4-2.4 7.1-2.3 7.2.4zm-60.6 5.6c3.9.6 6.6 1.7 8 3.1l2.1 2.2-3-.5c-16.7-2.8-23.8-3.7-24.8-3.2-.7.4-.1-.3 1.3-1.5 2.6-2.3 2.3-2.3 16.4-.1zm156.6-.1c0 .4-.9 1.3-2.1 2-1.7 1.1-2.4 1.1-3.6.1-1.3-1.2-1.3-1.4.4-2 2.4-1 5.3-1.1 5.3-.1zm6.4-.2c2.4.9 1.9 2.4-.8 2.4-1.3 0-2.6-.7-3-1.5-.6-1.6 1-2 3.8-.9zm12.2 1c5.3 2.5 6.4 5.7 6.3 18.1 0 5.9-.3 10.1-.6 9.3-.3-.8-1-1.8-1.6-2.1-.5-.4-1.1-4.3-1.2-8.7-.2-9.1-1.9-12.8-6.3-13.8-3.8-.9-4.2-1.3-3.5-2.9.7-1.9 2.7-1.9 6.9.1zm-199.1 5.1c-.5 2.1-1 12.1-1.1 22.3-.3 24.3-4.3 45-8.8 45-2 0-2 .6.8-9.3 3.3-11.5 5-27 4.3-39.7-.8-13.3 1-22 4.6-22 .6 0 .7 1.4.2 3.7zm139.9 3.4c-2.1 2.1-4.4 3.9-5.1 3.9-2.6 0-1.2-2.8 3.4-7.1 4-3.7 4.8-4.1 5.1-2.5.2 1.1-1.1 3.4-3.4 5.7zm30.3-5.4c.2.6-1.9 1.9-4.9 2.8-19.7 6.4-29 16.8-30.3 33.5-.3 4-.8 7.7-1.1 8.2-1.4 2.2-2.4-1-2.4-7.7 0-10.9 2.7-17.4 10.6-25.3 3.4-3.4 7.1-6.2 8.1-6.2s2.3-.4 2.9-1c1.7-1.7 12.8-6 14.8-5.7 1.1.1 2.1.7 2.3 1.4zm-122.2 5.1c.7 2 .1 2.5-2.4 1.7-3.2-1-5.5-3.6-4-4.6 1.5-.9 5.6.9 6.4 2.9zm60.5-.1c0 .3-.7 1.4-1.6 2.4-1.4 1.5-1.4 2 .1 5.5l1.5 3.7 2.4-2.2c3.9-3.7 4.8-1.8 2.4 4.7-2.5 6.9-2.7 7.1-3.9 5-.5-1-1.6-1.5-2.4-1.1-.9.3-2.1 0-2.9-.6-.9-.8-2.1-.8-3.9-.2-1.9.8-3.4.6-5.4-.4-1.9-1-3.1-1.1-4-.4-1.7 1.5-3 .4-3.8-3.2-.4-1.6-1.8-4.1-3.1-5.6-1.8-2-2.1-2.9-1.3-4.4 1.1-2.1 1.1-2.1 3.3-1.3.9.4 1.6 1.8 1.6 3.4 0 3.5 3.7 7.1 5 5 1-1.5 1.2-2.1 1.4-4.2.2-2.6 3.1-1.8 4.5 1.2l1.3 3.1 2.2-2.3c1.2-1.3 2-3.1 1.7-4.2-.2-1.1.4-2.5 1.4-3.2 2-1.5 3.5-1.8 3.5-.7zm-44.6 12.5c4.4 6.6 5.2 10 3.3 12.8-1.4 2-1.5 1.9-2.5-2.2-.6-2.4-2.7-6.5-4.6-9.2-1.9-2.7-3.3-5.3-3-5.8 1.2-2 3.6-.4 6.8 4.4zm11.4 2c1.2 2.5 2.5 7 2.8 10 .9 9.4 1 9.5 6.6 11.4 5.3 1.8 18.8 2.5 27.3 1.4 3.1-.4 4-.2 4.3 1.1.2 1.3-1 1.9-6.1 2.8-7.6 1.3-10.4 1.4-11.1.2-.3-.4-2.7-.6-5.3-.4-5.3.5-15-2.5-14.6-4.5.2-.6-.3-.9-1.1-.6-2.1.8-2.8-1.1-3.2-8.1-.2-4.2-1.1-8.2-2.8-11.8-3.1-6.4-3.1-7-.8-6.5.9.2 2.7 2.4 4 5zm-38.2-1.1c2.4.6 4.4 1.5 4.4 2 0 1.6-2.1 2-3.7.8-.9-.8-3.9-1.3-7.9-1.1-8.8.2-8.4-2.1.4-2.7 1.3 0 4.3.4 6.8 1zm148.3.6c1.1.9 1.8 2 1.5 2.5-.8 1.2-4.4-1-4.4-2.7 0-1.9.5-1.9 2.9.2zm-58.6 3.4c-.3 2.2-1.5 5.7-2.5 7.7l-2 3.7.5-5.2c.3-4.3 2.7-10.3 4.1-10.3.2 0 .2 1.8-.1 4.1zm-79.1.6c2 1.8 2.6 10.7.8 11.8-.7.4-.9-.2-.4-1.9.5-2 .2-2.6-1-2.6-1.8 0-2.1-2.1-.6-3.6.8-.8.6-1.5-.5-2.4-1.5-1.3-2-3-.8-3 .3 0 1.5.7 2.5 1.7zm134.7 4.1c-2.3.4-3.9-1.2-3.9-4 0-1.3.6-1.1 3 1 3 2.6 3 2.7.9 3zM187.5 57c.3.5-.1 1-.9 1s-1.8-.5-2.1-1c-.3-.6.1-1 .9-1s1.8.4 2.1 1zm7.8-.3c-.7.2-1.9.2-2.5 0-.7-.3-.2-.5 1.2-.5s1.9.2 1.3.5zM178 62.5c.4-.3 1.6-.2 2.7.2 1.6.6 1.5.8-.7 1.3-3 .7-3.9 5-1.6 6.9.8.7 4.8 1.4 8.8 1.6 11.6.4 11.3.4 10.1 1.6-1.2 1.2-15.6 1.5-17.4.3-2.2-1.3-2.9 2.2-2.9 14.7 0 14.6 0 14.7 8.5 15.8 3.1.4 6.1 1.4 6.6 2.2 1.3 2.1-7.1 2.4-13.2.4-4.6-1.6-4.9-1.9-4.9-5 0-3.6-.5-4.2-6-7.8-3.9-2.5-5.8-7-6.6-15.2-.7-7.2 1.8-11.7 7.1-13 4.5-1 5.5-2 5.5-5.5v-2.4l1.6 2.2c.8 1.2 1.9 2 2.4 1.7zm157.8 0l3.7 2.5h-3.7c-3.4 0-4.8-1.2-4.8-4.1 0-1.4.8-1.1 4.8 1.6zm-142.5.2c-.7.2-1.9.2-2.5 0-.7-.3-.2-.5 1.2-.5s1.9.2 1.3.5zM363 68c0 3.2-.5 5.2-1.7 6.1-1.5 1.3-1.6 1.1-1-2.5.4-2.3.2-4.5-.4-5.3-1.5-1.7-.4-4.4 1.6-3.7 1 .4 1.5 2 1.5 5.4zm-32.7 2.1c-.6.6-1.4.5-2.2-.5-1.8-2.2-.4-4 1.6-2 1 1 1.2 1.9.6 2.5zM183.5 68c-.3.5-1.1 1-1.6 1-.6 0-.7-.5-.4-1 .3-.6 1.1-1 1.6-1 .6 0 .7.4.4 1zm42.5 1.5c1.7 2.1.5 3.1-1.5 1.2-.8-.9-1.5-1.8-1.5-2.1 0-1.1 1.8-.6 3 .9zm109-.1c0 1.1-1.9 1.5-2.5.6-.3-.5.1-1 .9-1 .9 0 1.6.2 1.6.4zm-10.7 2.7c.3 1.3.1 1.9-.6 1.6-1.5-.5-2.2-3.7-.9-3.7.5 0 1.2.9 1.5 2.1zm-119.2 5.2c-.8.8-1.1.7-1.1-.4 0-2 1.3-3.4 1.8-1.9.3.7-.1 1.7-.7 2.3zm115.3-.8c.7 1.9-.3 4.7-1.5 3.9-1.2-.7-1.2-5.4 0-5.4.5 0 1.1.7 1.5 1.5zm43 3.1c1.9 1.9 2.2 8.4.3 8.4-1.2 0-3.8-8.6-2.9-9.5.8-.7.9-.7 2.6 1.1zm-44.4 6c0 .9-.6 1-2.5.1-2.7-1.3-3.9-3.3-2.9-4.9.7-1.1 5.4 3 5.4 4.8zm-89.4-2.9c1.1 1.2 1.3 1.8.5 2.1-1.9.6-4.1-.6-4.1-2.3 0-2 1.4-1.9 3.6.2zm55.5 5.5c-1 2.8-4.6 4.1-6.1 2.3-.9-1.1-.5-1.7 1.7-2.9 4.1-2.2 5.4-2 4.4.6zm-77.6 1.9c-1.1 1.7-3.5.9-3.5-1.1 0-1.8.3-1.9 2-1 1.1.6 1.8 1.5 1.5 2.1zm48.3 1.6c.2.9-.8 1.3-3.2 1.3-2.6 0-3.6-.4-3.6-1.6 0-1.9 6.1-1.6 6.8.3zm9.7.3c.3.5-.1 1-1 1s-1.3-.5-1-1c.3-.6.8-1 1-1 .2 0 .7.4 1 1zm41.5 1.5c0 1.9.5 2.5 2.2 2.5 2.9 0 1.3 1.5-1.7 1.5-2.5.1-3.8-2.4-2.8-5.1.9-2.3 2.3-1.6 2.3 1.1zm61.6 3.7c4.1 12.7 15.9 32.9 25.1 43.1 1.9 2.2 3.2 4.1 2.9 4.5-1.1 1-6.1-3.5-5.9-5.3 0-1-1-2-2.5-2.6C379.8 134 359 92 365.9 92c.5 0 1.7 2.4 2.7 5.2zm-161-.7c.8 2-.4 6.5-1.6 6.5-1.2 0-2.4-4.5-1.6-6.5.3-.8 1-1.5 1.6-1.5.6 0 1.3.7 1.6 1.5zm-3.8 9.2c-.2 1.2-1.4 1.8-3.6 1.9-3.7.2-3.8.1-1.6-2 2.1-2.2 5.6-2.1 5.2.1zm-59.8 5.8c0 .8-.4 1.5-1 1.5-.5 0-.7-.7-.4-1.5.4-.8.8-1.5 1-1.5.2 0 .4.7.4 1.5zm-.2 3.2c-2.5 5.3-4.3 8.3-5 8.3-.4 0-.8.4-.8 1 0 1.2-4.7 8-7.1 10.3-1.6 1.5-2 1.5-2.5.4-.8-2.2 11.6-20.7 13.9-20.7 1 0 1.7.3 1.5.7zm128.8.3c19.5 1.3 21 1.6 19.4 3.5-.8 1-3.2 1.5-6.9 1.5l-5.6.1 3 2.4c2.2 1.8 2.7 2.7 1.8 3.6-.8.8-3 0-8.5-3-7.4-4-7.6-4.1-17.7-4.1-11.4 0-12.1.2-27.3 9.6-4.8 3-9 5.4-9.3 5.4-.3 0-.5-.8-.5-1.9 0-1.2 2.6-3.4 7.5-6.6 4.1-2.6 7.5-5 7.5-5.3 0-.6-17.1.4-23.7 1.4-3.6.6-4.3.4-4.3-1 0-2.2 2.7-3.1 4.5-1.6 1.3 1 1.9 1 3.3-.4 2.1-1.8 4.8-2.1 5.7-.5.5.7 1.1.5 1.8-.5.9-1.1 4.8-1.7 15.7-2.4 8-.5 15.2-1 16.1-1.1.9 0 8.7.4 17.5.9zm43.9 5c14.9 2.5 41.7 10 42.3 11.8.7 2.2-2.1 2.3-8.6.3-10.5-3.1-25.9-6.8-35.7-8.6-4.9-.8-10.1-1.8-11.5-2.1l-2.5-.6 2.5-1.3c1.4-.8 3.4-1.2 4.5-1 1.1.2 5.2.9 9 1.5zm-134.9 6c.9 0 1.2.4.9 1-.3.5-1.3 1-2.1 1s-1.2-.5-.9-1c.9-1.5-.6-1.2-1.9.4-.6.7-5.8 2.8-11.6 4.5-5.8 1.8-13.4 4.3-17 5.7-3.6 1.3-8 2.4-9.7 2.4-1.7 0-3.9.7-4.7 1.6-1.5 1.4-1.6 1.4-1.6-.1 0-1.8 5.2-4.2 18-8.5 7.1-2.3 23.7-7.4 27.5-8.4.6-.2 1.2.1 1.3.5.2.5 1 .9 1.8.9zm110.4 2.5c3 1.5 4.1 4.5 1.8 4.5-.7 0-2.8-.9-4.7-2.1-2.7-1.6-3.1-2.3-2-3 1.8-1.1 1.5-1.2 4.9.6zm20.5 12.3c3.9 2.2 12.7 6.9 19.8 10.4 7 3.4 12.7 6.6 12.7 7.1 0 3.4-9.9-.5-30.5-12-12.9-7.2-16.6-9.9-15.8-11.8.4-1.3 1-1.3 3.7.4 1.7 1 6.3 3.7 10.1 5.9zm-186.8-.9c-.9 2.6-4.3 4.8-5.5 3.6-.7-.7 5-7.5 5.8-7 .5.3.3 1.8-.3 3.4zm127.9 2.6c-.2 1.6-7.4 7.4-9.3 7.5-.6 0-1.3.4-1.5.8-.3 1-21.1 13.8-27.5 17.1-3.7 1.8-4.2 1.9-4.7.4-.7-1.8-.8-1.8 8.9-7.3 3.9-2.2 12.6-7.5 19.5-11.9 12.9-8.2 15-9.2 14.6-6.6zm-56.6 3.3c0 1.3-1.2 2.2-2.2 1.6-1-.6-.1-2.4 1.3-2.4.5 0 .9.4.9.8zm87 8.6c0 .5.7 1.8 1.7 2.8 1.3 1.4 1.3 1.8.2 1.8-2.6-.1-9.4-5.5-9.7-7.9l-.4-2.3 4.1 2.4c2.3 1.3 4.1 2.7 4.1 3.2zm-103.4 1.5c-3.7 4.1-20.6 9.8-20.6 7 0-1.5 10.6-5.9 13.9-5.9 1.6 0 3.1-.6 3.5-1.5.3-.8 1.5-1.5 2.7-1.5 2.1 0 2.1.1.5 1.9zm185.2 9.1c.8 0 1.2.6 1 1.2-.7 2.1-4.6 2.1-7.7-.1-1.6-1.2-4.1-2.1-5.5-2.1-4.9 0-9.1-3.1-7.1-5.2.3-.3 4.5 1 9.3 2.8 4.8 1.8 9.3 3.3 10 3.4zm-49.9 6.6c6.2 3.2 11.5 6.3 11.8 7 .3.7 1 1.1 1.7.8.7-.2 7.4 2 14.9 5 7.5 3.1 17.5 6.7 22.2 8.1 6.8 2.1 8.5 3 8.5 4.5 0 3.2-2.2 7-4.1 7-1.6 0-1.7-.4-.9-2.6.6-1.4 1-2.7 1-2.9 0-.2-3-1.3-6.7-2.5-8.6-2.8-28.7-10.7-33.3-13-1.9-1-3.7-1.8-4-1.8-.8 0-32.2-16.1-33.7-17.3-.7-.6-1.3-2-1.3-3.1 0-1.8.6-1.7 6.3 1.5 3.4 1.9 11.3 6.1 17.6 9.3zm58.9-3.1c.3.3.1 1-.5 1.6-1.7 1.7-6.3.2-6.3-2 0-1.7.4-1.8 3.1-1.1 1.8.5 3.4 1.2 3.7 1.5zm-239.1 3.2c.5 1.3-5.2 2.2-6.9 1.1-.9-.5-.3-.8 1.5-.8 1.5 0 2.7-.5 2.7-1.1 0-1.3 2.2-.7 2.7.8zm260.2 1.3c6.3 1.1 12.8 2 14.5 2 4.8 0 6 1.2 5.2 5.3-.4 1.9-1.7 5-3 6.9-1.2 1.9-2.6 4.5-3 5.9-.8 3.1-3.4 6.5-4.3 5.6-.3-.4 1-4.6 3-9.5 1.9-4.8 3.2-9 2.9-9.3-.4-.3-7.4-1.8-15.7-3.3-8.2-1.5-15.4-3.1-15.8-3.5-1.5-1.5.3-3.1 2.6-2.6 1.2.3 7.3 1.4 13.6 2.5zm-271.3 1.6c-.5 1.4-.9 1.5-1.9.5-.9-.9-.9-1.4.3-2.1 1.8-1.1 2.4-.6 1.6 1.6zm-12.1 1.3c.3.5.1 1.2-.5 1.6-.5.3-1-.1-1-.9 0-1.8.6-2.1 1.5-.7zm-8.9 7.2c.4.8 0 .8-1.5 0-1.3-.8-2.1-2.1-2.1-3.9v-2.7l1.4 2.7c.8 1.6 1.8 3.3 2.2 3.9zM189 179c1.2.7 1.1 1-.5 1.6-1.1.4-2.7 1.3-3.5 2-.8.7-3.9 2.2-6.7 3.3-4.1 1.6-5.3 1.8-5.3.7 0-1.9 2.4-3.7 8.4-6.3 5.9-2.6 5.7-2.5 7.6-1.3zm-80.7 13.1c1.8 3.8 1.7 6.9-.1 6.9-1 0-4.2-7.6-4.2-9.8 0-2.6 2.6-.9 4.3 2.9zm50.5 0c.9.1.1.5-1.8.8-4 .8-4.5.7-3.5-.9.4-.6 1.4-.9 2.2-.6.8.3 2.2.7 3.1.7zm-11.8 3.4c0 .8-.5 1.5-1.1 1.5-.7 0-.9 1.1-.5 3 .6 3.4-.1 3.8-2 1.2-1.7-2.2-1.8-5.9-.1-6.5 2.3-1 3.7-.7 3.7.8zM401 216c-3.3 8.1-5.1 10.7-6.9 9.6-1.4-.9.6-5.5 3.6-8.3 1.3-1.2 2.6-3.7 3-5.5.7-3.8 2.5-6.7 3.1-4.9.2.7-1 4.7-2.8 9.1zm-249.6 2.3c7.6 24.2 13.8 54.4 15.4 75.7l.7 9.4 3.8 1.1c2.1.6 4.2 1.7 4.6 2.4.6.9 1.1.9 1.5.3.4-.7 3-.4 7.8.9 9.3 2.6 10.4 3.2 8.5 4.7-1.1 1-3.3.8-9.8-1-4.6-1.2-8.6-2.4-8.9-2.7-.3-.4-2.2-.7-4.3-.9-7.1-.4-7.3-.8-8-13.9-1.3-23.2-7.3-51.8-18.1-85.8-.2-.6.4-1.2 1.4-1.2 1.5-.1 2.5 2 5.4 11zm113.4-8.3c21.4 4.6 21.5 36.1.1 47-5.2 2.7-14.4 3.9-13.7 1.9.3-.9 2.3-1.5 5.4-1.7 3.6-.2 5.6-1 7.6-2.9 3.8-3.7 7-11.8 7.6-19.4.4-5.6.1-7.5-2-12-3.5-7.6-5.7-9.9-10.6-11-8.1-1.8-15.5 1.8-19.3 9.3l-2.1 4.1 2.1 2.8c2.5 3.4 2.6 4.5.5 5.3-6.8 2.6-9.8-4.4-5.2-12.5 2.7-4.9 8.4-8.8 15.1-10.5 6.7-1.6 8.5-1.6 14.5-.4zm104.7.9c-.3.6-1.1 1.1-1.7 1.1-.6 0-.6-.6.2-1.5 1.4-1.7 2.6-1.3 1.5.4zm-59.9.1c1.9.8 3.7.8 5.7 0 3.6-1.2 4.6-.6 2.9 1.8-3.4 4.9-5.3 9.9-5.9 15.6-.6 6.3-.5 6.3 2.2 7 1.5.4 3.2.3 3.8-.3 1.8-1.8 6 4.6 6.2 9.5.1 2.4-.2 4.4-.7 4.4-.5 0-.7.4-.3 1 .3.5 1.2.7 2 .3.9-.3 1.5.1 1.5 1 0 .8.7 1.7 1.5 2.1 2 .7 1.9 3.3-.1 5.3-2.1 2.1-6 .8-8.7-2.9-2.2-3-2.1-3.3 2.3-10.6 1.1-1.7 1.5-3.2 1-3.2s-1.6 1.3-2.5 2.9c-2.5 4.9-3.5 4.6-2.8-.7.3-3.1.1-5.2-.5-5.6-1.6-1-6.2.4-6.2 1.8 0 .7-1.4 4.1-3.1 7.5-3.9 7.9-9.3 12.1-15.3 12-5.5 0-10.6-1.9-12.3-4.6-1.4-2-1.3-2.4 1.3-5l2.7-2.7.9 2.4c2.3 5.9 3.4 7.5 6 7.8 3.3.4 6.3-3.2 8.3-10.1 2.3-7.6 2.1-8-2.1-6.2-4.5 1.8-4.4 1.8-4.4 0 0-.9 1.9-2.4 4.3-3.4 3.8-1.6 4.7-2.6 6.6-7.4 1.3-3 3.8-7.3 5.7-9.5 3.9-4.6 4.1-5.2 1.5-5.2-1.1 0-2.1-.4-2.3-.9-.1-.6-1.5-1.1-3-1.3-3.2-.5-4.2-1.3-3.3-2.7.8-1.4 3.6-1.4 7.1-.1zm-105.6.4c0 .3-2.5 1.2-5.5 2.1-10 2.9-16.9 12.4-12 16.5 3 2.5 1.2 5-3.6 5-2.5 0-4.2-4.4-3.4-8.7 1.1-5.8 7.8-11.7 16.5-14.4 2.8-.8 8-1.1 8-.5zm10.6.8c.3.4 1.3.8 2.4.8 1 0 3.2 1.6 4.9 3.5 5.7 6.6 3.1 15.7-5.4 18.5-1.9.6-3.5 1.4-3.5 1.7 0 .3 1 2.1 2.1 4 1.7 2.6 2 4.3 1.5 7.4-.7 4.3.6 7.9 2.9 7.9.7 0 2.7-1.2 4.4-2.6 3.8-3.2 4.1-1.2.4 2.2-6.6 6-13.2 6.5-15.8 1.3-1.3-2.4-1.3-3.9-.3-9.8 1.1-6.2 1-7.2-.5-8.9-2.4-2.6-2.1-3.2 1.2-3.2 5.1 0 9.3-8 7.7-14.5-.9-3.3-5.6-8.3-7.7-8-.9.2-2.3-.1-3-.6-.9-.6.2-.9 3.4-.7 2.7.1 5 .5 5.3 1zm124.3-.5c0 .5-1.3 2.8-2.8 5.3-2.2 3.6-3.3 4.6-5.9 4.8-2.1.2-3.4-.2-3.8-1.2-.7-1.9 2.2-6.3 5.5-8.1 2.8-1.5 7.2-2 7-.8zm-222.3 2.2c-.3.5 0 1.1.8 1.4.7.3 3 4.5 5 9.2 2.8 6.9 3.4 9.1 2.5 10.2-.7.7-1.6 1-2 .6-.7-.8-8.9-20.8-8.9-21.8 0-.3.7-.5 1.6-.5.8 0 1.3.4 1 .9zm91.7 4.7c.3.3-.3 2.2-1.3 4.2-1.1 2.1-2.4 7.1-3 11.2-1.6 10.8-3.6 16.2-7.3 19.7-4.8 4.6-8.9 6.3-15.1 6.3-4.7 0-5.7-.4-7.5-2.6-2.7-3.5-2.6-4.8.5-7.3 3.7-2.9 4.4-2.7 4.4 1.8s1.8 6.4 5.7 5.9c3.9-.4 8.6-10.2 10.2-21.2.8-6 1.8-9.1 3.9-12.1 3.3-4.7 7.8-7.5 9.5-5.9zm53.3 4c-1 1.4-2.4 6-3.2 10.2-2 10.5-2.2 11.2-4 10.5-.8-.3-1.3-1.2-1-2 .9-2.3-.3-3.4-2.4-2-1.3.8-2 2.3-2 4.4 0 3.5.9 4 4.1 2.2 1.9-1 2-.9.9 1.1-.7 1.3-2.1 2.5-3.1 2.7-2 .5-2.2 1.5-1.9 7 .2 3.6-1 4.1-4.9 1.9-2.1-1.1-3-1.1-5.7 0-4.8 2-8.1 1.8-8.9-.6-.3-1.1-.3-2.5.1-3.1 1.2-2 7.1-3.8 10.6-3.2 4.4.7 6.5-1.9 7.4-8.9.4-2.6 1-4.6 1.3-4.3.4.2.6-1 .5-2.6-.5-7.5 5.5-15.9 11.2-15.9 2.6 0 2.6 0 1 2.6zm34.3 7c-1.6 2-2.6 1.7-4.5-1.1-1.4-2.1-1.5-3.1-.5-5.1l1.2-2.6 2.5 3.7c1.9 2.9 2.2 4 1.3 5.1zm30.1-3.2c0 .2-.3 1.2-.6 2-.5 1.3-.9 1.4-2 .5-1.6-1.3-.9-2.9 1.2-2.9.8 0 1.4.2 1.4.4zm39 .8c0 .7-1.3 6.5-2.9 12.9-1.6 6.3-3.9 16.7-5 23-2.6 14-4.1 21.8-4.7 24.2-.8 2.7-2.4.9-2.4-2.8 0-4.6 3.5-24.9 6.5-37.5 4.1-17 5.4-21 7-21 .8 0 1.5.6 1.5 1.2zm-235 17.5c6.3 16.9 10.4 35.7 9.8 45.5l-.4 7.1-11.6 11.1c-10.3 9.9-16.3 17.4-14.1 17.7h20.8c18.4-.2 37.4 1.5 39.3 3.3.3.4-.1 1.3-1 2.2-1.3 1.3-2.4 1.4-7.3.5-3.2-.6-6.9-1.1-8.2-1.1-2.3 0-2.4.2-1.7 4.5 1 7-2.8 5.5-4.1-1.6l-.7-3.7-6.1-.4c-3.4-.3-12.4-.1-20.1.3-7.6.5-14.2.6-14.7.3s-.9-1.4-.9-2.5c0-4.7 3.6-9.7 15-20.9l12-11.7v-7.4c0-8.8-2.6-20.9-7.5-35.5-3.9-11.7-4.2-13.4-2.1-13.4.8 0 2.4 2.4 3.6 5.7zm256.1 11.1c-3.8 12.4-5.3 19.2-6.6 30.4-.4 3.2-1.1 4.8-2.1 4.8-4.1 0 1.7-30.8 9.2-48.5 1.5-3.7 1.7-3.8 2.6-1.9.7 1.5-.1 5.4-3.1 15.2zM351 295.6c0 1.4.5 3.4 1 4.4.6 1.1.8 3 .5 4.3-.6 2.2-2.2 2.8-16.6 6.6-20.6 5.3-38.7 12.1-51.9 19.6-12.6 7.2-12 6.9-12 5.6 0-2.7 7.2-7.8 18.3-13.1 14.5-6.9 25.8-11 44.5-15.9l13.7-3.6.3-5.8c.2-3.3.7-5.5 1.3-5.2.5.4.9 1.7.9 3.1zm35 7.5c0 1.1.9 1.9 2.2 2.1 1.3.2 2.4 1.1 2.6 2 .7 3.4-2.9 1.8-8.6-3.9-5-5-5.4-5.7-3.7-6.3 2.4-.9 7.5 3.3 7.5 6.1zm12.5 10.7c3.5 2.2 8.8 11.3 8.3 14.5-.3 2.1-.6 2.2-9.7 1.8-6.3-.2-9.9-.8-10.9-1.7-2.1-2.1.7-2.8 8.9-2.1 6.1.5 6.9.4 6.9-1.2 0-.9-2-4.1-4.5-7-2.5-2.9-4.5-5.5-4.5-5.7 0-1 2.7-.3 5.5 1.4zm-183.1 4.4c5 2 9.7 6 8.5 7.2-.9.9-11.3-4.3-12.8-6.3-1.2-1.6-1.9-1.9-2.8-1-1.3 1.3-5.3-.4-5.3-2.3 0-1.4 4.9-.5 12.4 2.4zm21.1 10.4c7 4.2 19.5 13.5 19.5 14.5 0 2.3-3.5 1.2-8.6-2.7-3.3-2.4-9.6-6.4-14.1-9-4.6-2.5-8-5-7.7-5.5 1.1-1.8 5-.8 10.9 2.7zm136.3-1.4c-.3.7-1.9 1.6-3.8 1.9-3.5.8-4.9 2.3-5 5.4-.1 3.9-2.7 11.9-4 12.3-.9.3-1.1-1-.5-5.9.3-3.5.9-7.2 1.2-8.3.5-1.7.1-1.8-6.3-1.1-10 1-28.9 5.9-41.7 10.7-13.9 5.2-27.4 12.7-41.1 22.9-5.7 4.2-11.5 7.9-12.7 8-2.6.3-7.8-2.1-9.8-4.5-1.1-1.3-1.1-1.6.2-1.6.8 0 2 .7 2.7 1.5 1.1 1.3 1.5 1.3 2.2.3.6-1 1-1 1.7.1 1.1 1.6-.2 2.4 15.1-8.9 18.9-13.9 47.3-26.3 71-30.9 16.7-3.2 31.5-4.1 30.8-1.9zm8.2.3c0 .8-.9 1.5-2 1.5-1.3 0-1.8-.5-1.4-1.5.4-.8 1.2-1.5 2-1.5s1.4.7 1.4 1.5zm-184 9c0 1.9-2.6 2.6-5.5 1.5-2.2-.8-2.4-1.3-1.5-2.9.9-1.7 1.4-1.8 4-.9 1.7.5 3 1.6 3 2.3zm21.9 8c6.1 3.1 11.1 6 11.1 6.5 0 2.2-4.3 1.2-14.2-3.4-7.8-3.7-10.8-5.6-10.8-6.8 0-2.8 2-2.2 13.9 3.7zm-62.2 5.2c-.8 4.8-6.5 15.9-9.9 19.4-1.6 1.5-2.8 3.1-2.8 3.6s-1.1 3.2-2.5 6c-6.2 12.9-7 16.7-7 33.3.1 14.4.3 16.1 2.9 23.5 3 8.8 5.2 12.8 10.3 19.2 3.9 4.9 4.1 6.2 1.1 5.6-4.5-.9-13-15.3-16.3-27.8-2.5-9.1-3-27.4-1.1-36.5 1.7-8 7.1-20.2 13-29.4 5.3-8.3 8.6-15.2 8.6-18.1 0-1.9.5-2.5 2.1-2.5 1.9 0 2.1.4 1.6 3.7zm208.6 6.1c3.2 6.7 3.3 7.2.9 7.2-2.3 0-6.3-7.9-5.5-10.9.3-1.2.8-2.1 1.2-2.1.3 0 1.8 2.6 3.4 5.8zM242.5 362c.3.5.2 1-.4 1-.5 0-1.3-.5-1.6-1-.3-.6-.2-1 .4-1 .5 0 1.3.4 1.6 1zm132.3 10.2c5.3 9.5 5.7 10.4 3.7 11.2-.9.3-1.4.2-1.1-.3.3-.5 0-1.1-.8-1.4-1.9-.7-8.8-13.7-8.2-15.3 1-2.6 2.2-1.4 6.4 5.8zM189 382.5c9.9 2.3 13.1 3.6 12.7 4.8-.4 1.4-5 1.1-12.7-.9-3-.8-8.6-1.4-12.4-1.4-6.9 0-7 0-11.2 4.5-4.7 4.8-6.8 10.4-8 20.5-.7 6.3-2.7 9.6-3.8 6.2-1-3.2 1.3-16.3 3.9-21.9 2.4-5.3 7.2-10.7 11-12.3 3.2-1.4 13.4-1.1 20.5.5zm146 .3c0 1.5-1.5 2.2-7.7 3.5-13.7 3-29.3 10.4-38 18-3 2.6-3.4 2.7-4 1.1-2-5.2 21.7-18.2 42.2-23.2 6.1-1.5 7.5-1.4 7.5.6zm17.4 3.3c1.4 1.7 2.6 4.1 2.6 5.3 0 1.2.5 2.7 1.2 3.4.6.6.9 1.4.6 1.7-.3.3-2.2-1.7-4.2-4.5-2-2.7-4-5-4.6-5-.5 0-1-.9-1-2 0-2.9 2.5-2.4 5.4 1.1zM211 392.5c1.4 1.6 1 1.8-1.4.9-.9-.3-1.6-1-1.6-1.5 0-1.4 1.6-1.1 3 .6zm7.5 1.5c.3.5-.1 1-.9 1-.9 0-1.6-.5-1.6-1 0-.6.4-1 .9-1 .6 0 1.3.4 1.6 1zm166.5 6c2.5 13.5-.2 32.3-6.6 45.5-5.7 11.8-18.4 24.9-29.5 30.6-3.8 1.9-3.9 1.9-3.9 0 0-1.3 2.3-3.5 6.9-6.5 19-12.6 28.7-30.5 29.8-54.6.3-6.4 0-13.5-.5-15.9-1.1-4.8-.9-6.1 1.2-6.1.8 0 1.8 2.7 2.6 7zm-23.5 14.3c0 11.9-.3 14.1-2.9 22.1-3.3 10.1-10.1 21-17 27.4-3.6 3.4-4.7 4-5.2 2.8-.4-1 1.2-3.6 4.3-7 13.1-14.8 19.5-33.9 17.2-51.8-1.1-8.7-.6-10.9 2-8.4 1.3 1.4 1.6 4 1.6 14.9zm-128.7-9c2 1.3 5.5 8.7 4 8.7-.7 0-1.8-.4-2.4-.8-1.3-.9-6.4-7.7-6.4-8.5 0-.8 3.1-.4 4.8.6zm9.8 22.5c-.8.8-4.6-2.9-4.6-4.4 0-.7.6-1.4 1.3-1.7 1.2-.4 4.2 5.1 3.3 6.1zm33.1 1.9c-5.5 18.7-10.2 36.1-12.3 45.7-3.9 18-3.9 18.1-5.5 18.4-2.1.4-7.4-24.5-5.7-26.5 1.5-1.9 2.4-.3 3.8 6.5 1.3 5.8 2.4 6 3.4.6 1.2-6 10.3-38.8 12-42.7 1.5-3.8 5.4-5.5 4.3-2zm-28.8 10c6.8 22.7 7.1 23.9 4.2 22.4-1.1-.6-2.1-2.7-2.5-5.3-.4-2.3-1.1-4.7-1.5-5.3-1.5-1.8-6.3-18.7-5.7-20.1 1.2-3.1 2.7-.9 5.5 8.3zm-86.3-3.3c.3.8.4 2.7.2 4.3l-.3 2.8-1.8-3.2c-.9-1.8-1.7-3.7-1.7-4.3 0-1.5 3-1.2 3.6.4zm6.5 13.7c1 1 1.6 2.5 1.3 3.4-.4.9 0 1.5.9 1.5.8 0 2 .7 2.7 1.5 1 1.2.9 1.5-.6 1.5-2.5 0-3.5-.8-6.3-4.7-1.6-2.3-2-4-1.5-5.5s.9-1.8 1.2-.9c.2.7 1.3 2.2 2.3 3.2zM153 463.5c1 1.2 1 1.5-.4 1.5-.9 0-1.6-.7-1.6-1.5s.2-1.5.4-1.5.9.7 1.6 1.5zm29.8 3c5.9 4.7 8.4 7 11.5 10.3 1.1 1.2 2.6 1.8 3.8 1.5 1.2-.3 5.2 1.5 10.9 4.8 8.8 5.2 10.9 7.4 9.2 9.1-1.1 1.1-23-3.6-29.1-6.3-2.4-1-4.9-1.9-5.6-1.9-1.8 0-19-8.7-20.3-10.3-.6-.7-.8-1.8-.4-2.4.5-.7 5.1 1.1 13.7 5.3 7.1 3.5 15.2 6.8 18 7.4 2.7.6 6.1 1.4 7.4 1.7 4.2 1 1.6-1.2-8.2-7-10.8-6.5-19.4-13.7-18.3-15.5 1-1.7 1.2-1.7 7.4 3.3zm148.2 6c-.7.9-5.6 4.2-10.9 7.3-5.7 3.4-8.8 5.8-7.8 6 .9.2 7-1.5 13.4-3.8 13.6-4.7 14.4-4.9 15-3.3.9 2.5-15.9 8.8-32.6 12.2-9.6 2-11.1 2-11.1-.4 0-1.9 20.4-14.5 23.6-14.5.8 0 2.6-1.1 3.9-2.4 1.4-1.4 3.3-2.9 4.2-3.5 2.4-1.3 4 .3 2.3 2.4z"/><path d="M165 70.7c-1.9 2.4-2.1 3.6-1.6 9.1.7 7.6 2.8 12.5 6.3 14.1 3.6 1.7 4.1.5 1-2.7-3.3-3.4-5.4-12.3-3.8-15.8.5-1.3 2.2-2.6 3.6-3 3.4-.8 2.9-3.8-.6-4.2-1.9-.2-3.3.5-4.9 2.5z"/><path d="M169 75.5c-1.6 1.9-.8 8.7 1.5 12.2 2.2 3.3 3.5 1.6 3.5-4.7 0-8.3-2-11.2-5-7.5z"/></svg>